<svg width="1807" height="1547" viewBox="0 0 1807 1547" fill="none" xmlns="http://www.w3.org/2000/svg">
<ellipse cx="390.568" cy="689.443" rx="252.503" ry="233.165" transform="rotate(19 390.568 689.443)" fill="currentColor"/>
<ellipse cx="514.989" cy="978.884" rx="252.503" ry="233.165" transform="rotate(19 514.989 978.884)" fill="currentColor"/>
<ellipse cx="759.141" cy="816.353" rx="252.503" ry="233.165" transform="rotate(19 759.141 816.353)" fill="currentColor"/>
<ellipse cx="573.819" cy="580.57" rx="252.503" ry="233.165" transform="rotate(19 573.819 580.57)" fill="currentColor"/>
<ellipse cx="895.346" cy="616.652" rx="252.503" ry="233.165" transform="rotate(19 895.346 616.652)" fill="currentColor"/>
<ellipse cx="1464.38" cy="717.406" rx="252.503" ry="233.165" transform="rotate(19 1464.38 717.406)" fill="currentColor"/>
<ellipse cx="1202.58" cy="811.131" rx="252.503" ry="233.165" transform="rotate(19 1202.58 811.131)" fill="currentColor"/>
<ellipse cx="1319.87" cy="1058.1" rx="252.503" ry="233.165" transform="rotate(19 1319.87 1058.1)" fill="currentColor"/>
<ellipse cx="1217.13" cy="541.42" rx="252.503" ry="233.165" transform="rotate(19 1217.13 541.42)" fill="currentColor"/>
<ellipse cx="929.736" cy="984.333" rx="252.503" ry="233.165" transform="rotate(19 929.736 984.333)" fill="currentColor"/>
<path d="M926.186 1043.5C904.752 1043.7 887.225 1025.84 887.052 1003.64L886.389 918.502C886.309 907.84 890.322 897.582 897.543 889.983C904.765 882.385 914.604 878.068 924.898 877.983C946.322 877.809 963.835 895.655 964.023 917.875L964.671 1002.99C964.854 1025.19 947.61 1043.35 926.186 1043.5Z" fill="#E2E2B6"/>
<path d="M1179.39 1064.62L673.33 1068.85C651.896 1069.02 634.364 1051.16 634.195 1028.98C634.112 1018.31 638.123 1008.05 645.345 1000.45C652.566 992.844 662.408 988.525 672.705 988.438L1178.79 984.218C1200.2 984.043 1217.72 1001.9 1217.9 1024.11C1218.05 1046.31 1200.85 1064.45 1179.39 1064.62Z" fill="#E2E2B6"/>
<path d="M1221.39 859.555C1221.62 890.569 1197.58 915.909 1167.64 916.168L682.785 920.194C652.842 920.463 628.377 895.495 628.151 864.481L625.609 538.78C625.384 507.796 649.431 482.446 679.374 482.197L1164.22 478.151C1194.17 477.907 1218.62 502.845 1218.84 533.829L1221.39 859.555Z" fill="#6EACDA"/>
<path d="M683.177 920.043C653.235 920.312 628.769 895.344 628.543 864.33L626.002 538.629C625.776 507.645 649.823 482.295 679.766 482.046L1164.62 478" fill="#021526"/>
<path d="M834.723 558.401L834.724 558.401C841.333 558.361 845.533 554.244 845.5 550.394C845.454 546.53 841.142 542.46 834.546 542.5L834.723 558.401ZM834.723 558.401L660.461 559.5C660.461 559.5 660.461 559.5 660.461 559.5C653.851 559.54 649.539 555.463 649.5 551.61L649.5 551.609C649.481 549.727 650.412 547.752 652.395 546.176C654.393 544.589 657.222 543.617 660.277 543.597C660.277 543.597 660.277 543.597 660.277 543.597L834.546 542.5L834.723 558.401Z" fill="#E2E2B6" stroke="currentColor" stroke-width="5"/>
<path d="M649.5 665.526L649.5 665.525C649.493 665.192 649.641 664.588 650.526 663.746C651.417 662.899 652.883 661.991 654.998 661.163C659.223 659.51 665.154 658.517 671.485 658.498C671.485 658.498 671.485 658.498 671.485 658.498L993.146 657.5C999.723 657.48 1005.59 658.495 1009.74 660.068C1011.82 660.858 1013.35 661.742 1014.32 662.602C1015.28 663.461 1015.49 664.102 1015.5 664.478C1015.5 664.842 1015.33 665.458 1014.43 666.301C1013.51 667.152 1012.04 668.038 1010 668.838C1005.93 670.431 1000.11 671.481 993.516 671.501L671.867 672.5C665.283 672.52 659.407 671.505 655.255 669.932C653.17 669.142 651.645 668.259 650.678 667.399C649.709 666.537 649.508 665.896 649.5 665.526Z" fill="#E2E2B6" stroke="currentColor" stroke-width="5"/>
<path d="M1096.26 708.501L1096.27 711.001L1096.26 708.501L679.243 709.5C679.243 709.5 679.243 709.5 679.243 709.5C670.584 709.52 662.806 708.492 657.255 706.87C654.464 706.054 652.373 705.128 651.029 704.205C649.609 703.231 649.503 702.613 649.5 702.511L649.5 702.509C649.499 702.46 649.521 701.901 650.816 700.951C652.058 700.039 654.073 699.086 656.911 698.229C662.562 696.523 670.416 695.518 678.74 695.498C678.74 695.498 678.741 695.498 678.741 695.498L1095.77 694.5C1104.42 694.48 1112.19 695.508 1117.74 697.13C1120.53 697.946 1122.62 698.872 1123.96 699.796C1125.35 700.749 1125.49 701.364 1125.5 701.493C1125.5 701.595 1125.42 702.166 1124.12 703.1C1122.85 704.015 1120.83 704.946 1118.09 705.773C1112.64 707.417 1104.93 708.481 1096.26 708.501Z" fill="#E2E2B6" stroke="currentColor" stroke-width="5"/>
<path d="M649.5 628.526L649.5 628.525C649.493 628.192 649.641 627.588 650.526 626.746C651.417 625.899 652.883 624.991 654.998 624.163C659.223 622.51 665.154 621.517 671.485 621.498C671.485 621.498 671.485 621.498 671.485 621.498L993.146 620.5C999.723 620.48 1005.59 621.495 1009.74 623.068C1011.82 623.858 1013.35 624.742 1014.32 625.602C1015.28 626.461 1015.49 627.102 1015.5 627.478C1015.5 627.842 1015.33 628.458 1014.43 629.301C1013.51 630.152 1012.04 631.038 1010 631.838C1005.93 633.431 1000.11 634.481 993.516 634.501L671.867 635.5C665.283 635.52 659.407 634.505 655.255 632.932C653.17 632.142 651.645 631.259 650.678 630.399C649.709 629.537 649.508 628.896 649.5 628.526Z" fill="#E2E2B6" stroke="currentColor" stroke-width="5"/>
<path d="M1067.3 598.351L1067.31 600.851L1067.3 598.351L677.164 599.5C669.117 599.523 661.907 598.348 656.783 596.507C654.211 595.583 652.293 594.538 651.058 593.496C649.811 592.444 649.511 591.625 649.5 591.11L649.5 591.109C649.49 590.641 649.717 589.863 650.861 588.832C652.004 587.8 653.853 586.724 656.466 585.755C661.682 583.819 668.96 582.67 676.697 582.647C676.697 582.647 676.697 582.647 676.697 582.647L1066.85 581.5C1074.89 581.477 1082.09 582.652 1087.21 584.493C1089.78 585.417 1091.7 586.463 1092.94 587.506C1094.18 588.554 1094.48 589.373 1094.5 589.894C1094.51 590.401 1094.25 591.192 1093.08 592.226C1091.91 593.26 1090.05 594.311 1087.53 595.247C1082.5 597.112 1075.36 598.328 1067.3 598.351Z" fill="#E2E2B6" stroke="currentColor" stroke-width="5"/>
<path d="M649.5 628.526L649.5 628.525C649.493 628.192 649.641 627.588 650.526 626.746C651.417 625.899 652.883 624.991 654.998 624.163C659.223 622.51 665.154 621.517 671.485 621.498C671.485 621.498 671.485 621.498 671.485 621.498L993.146 620.5C999.723 620.48 1005.59 621.495 1009.74 623.068C1011.82 623.858 1013.35 624.742 1014.32 625.602C1015.28 626.461 1015.49 627.102 1015.5 627.478C1015.5 627.842 1015.33 628.458 1014.43 629.301C1013.51 630.152 1012.04 631.038 1010 631.838C1005.93 633.431 1000.11 634.481 993.516 634.501L671.867 635.5C665.283 635.52 659.407 634.505 655.255 632.932C653.17 632.142 651.645 631.259 650.678 630.399C649.709 629.537 649.508 628.896 649.5 628.526Z" fill="#E2E2B6" stroke="currentColor" stroke-width="5"/>
</svg>
