<svg width="128" height="54" viewBox="0 0 128 54" fill="none" xmlns="http://www.w3.org/2000/svg">
<path d="M27.6115 44.288C27.6115 42.496 27.9102 40.192 28.5075 37.376C29.1048 34.56 29.8942 31.552 30.8755 28.352C28.0595 28.5653 25.2222 28.8427 22.3635 29.184C19.5475 29.5253 17.0942 29.7173 15.0035 29.76C13.0835 34.24 11.5475 38.3787 10.3955 42.176C9.28617 45.9307 8.4115 49.6 7.7715 53.184C6.15017 52.8 4.80617 52.1173 3.7395 51.136C2.67283 50.1973 1.6915 49.0027 0.7955 47.552C1.13683 46.8693 1.52083 45.9947 1.9475 44.928C2.41683 43.8613 2.95017 42.5813 3.5475 41.088C4.1875 39.552 4.8915 37.7813 5.6595 35.776C6.47017 33.728 7.3875 31.36 8.4115 28.672C7.0035 28.0747 6.06483 27.2427 5.5955 26.176C5.80883 26.0053 6.27817 25.8347 7.0035 25.664C7.7715 25.4507 8.71017 25.2373 9.8195 25.024L10.6515 22.976C11.5475 20.672 12.2728 18.7307 12.8275 17.152C13.4248 15.5733 13.9155 14.0373 14.2995 12.544C14.7262 11.008 15.1102 9.32266 15.4515 7.488C15.8355 5.65333 16.2835 3.328 16.7955 0.511997C18.5875 0.853331 20.2088 1.64266 21.6595 2.88C23.1528 4.11733 24.4328 5.61066 25.4995 7.36C25.1155 7.872 24.6462 8.64 24.0915 9.664C23.5368 10.688 22.9182 11.9253 22.2355 13.376C21.5955 14.784 20.8915 16.384 20.1235 18.176C19.3555 19.9253 18.5235 21.7813 17.6275 23.744C20.2728 23.4027 22.9395 23.0827 25.6275 22.784C28.3582 22.4853 30.7688 22.272 32.8595 22.144C33.6275 19.9253 34.4168 17.7707 35.2275 15.68C36.0808 13.5467 36.9128 11.6053 37.7235 9.856C38.5342 8.10667 39.3022 6.57066 40.0275 5.248C40.7955 3.92533 41.4782 2.944 42.0755 2.304C42.5022 2.34666 43.0568 2.51733 43.7395 2.816C44.4648 3.072 45.1902 3.392 45.9155 3.776C46.6408 4.16 47.3022 4.58666 47.8995 5.056C48.4968 5.48267 48.9022 5.888 49.1155 6.272C48.3475 6.99733 47.5795 7.936 46.8115 9.088C46.0435 10.24 45.2755 11.5627 44.5075 13.056C43.7822 14.5493 43.0568 16.1707 42.3315 17.92C41.6062 19.6693 40.9235 21.4827 40.2835 23.36C41.1368 24.128 41.5635 25.088 41.5635 26.24C41.5635 27.0507 41.3928 27.7973 41.0515 28.48C40.6675 28.3947 40.2835 28.352 39.8995 28.352C39.5155 28.3093 39.1102 28.2667 38.6835 28.224C37.9582 30.528 37.2968 32.8107 36.6995 35.072C36.1022 37.3333 35.5902 39.488 35.1635 41.536C34.7795 43.584 34.4595 45.4613 34.2035 47.168C33.9902 48.8747 33.8835 50.304 33.8835 51.456C33.8835 51.8827 33.8835 52.224 33.8835 52.48C33.9262 52.736 33.9688 52.9493 34.0115 53.12C33.0728 53.0773 32.3902 52.9067 31.9635 52.608C31.5368 52.352 31.2168 52.0533 31.0035 51.712C30.7902 51.4133 30.5982 51.0933 30.4275 50.752C30.2568 50.4533 29.9795 50.2187 29.5955 50.048C29.2968 49.92 29.0195 49.6213 28.7635 49.152C28.5075 48.6827 28.2942 48.1493 28.1235 47.552C27.9528 46.9547 27.8248 46.3573 27.7395 45.76C27.6542 45.1627 27.6115 44.672 27.6115 44.288ZM66.191 52.096C65.2097 52.608 64.1643 52.864 63.055 52.864C61.6897 52.6933 60.367 52.352 59.087 51.84C57.8497 51.328 56.9323 50.7093 56.335 49.984C55.9937 47.8933 55.7163 45.9733 55.503 44.224C55.2897 42.4747 55.119 40.832 54.991 39.296C54.863 37.7173 54.7777 36.224 54.735 34.816C54.6923 33.3653 54.671 31.9147 54.671 30.464C54.671 28.544 54.6923 26.5173 54.735 24.384C54.7777 22.2507 54.8203 19.9893 54.863 17.6C54.9483 15.168 55.0123 12.5867 55.055 9.856C55.0977 7.08267 55.119 4.07467 55.119 0.831997C55.6737 0.831997 56.5057 1.00266 57.615 1.344C58.7243 1.64266 59.8123 2.00533 60.879 2.432C61.9883 2.85867 62.9697 3.30666 63.823 3.776C64.6763 4.20266 65.1457 4.56533 65.231 4.864C64.8043 6.05866 64.4203 7.616 64.079 9.536C63.7803 11.456 63.5243 13.5893 63.311 15.936C63.1403 18.2827 63.0123 20.7573 62.927 23.36C62.8417 25.9627 62.799 28.544 62.799 31.104C62.799 33.024 62.8203 34.752 62.863 36.288C62.9057 37.7813 62.9483 39.1467 62.991 40.384C63.0763 41.5787 63.183 42.7093 63.311 43.776C63.439 44.8 63.5883 45.824 63.759 46.848C64.9537 43.2213 66.255 39.5947 67.663 35.968C69.1137 32.3413 70.5857 28.864 72.079 25.536C73.615 22.1653 75.1297 19.0293 76.623 16.128C78.1163 13.2267 79.5243 10.7093 80.847 8.576C82.2123 6.4 83.4283 4.69333 84.495 3.456C85.5617 2.176 86.4363 1.49333 87.119 1.408C87.5883 1.49333 88.079 1.68533 88.591 1.984C89.1457 2.24 89.6577 2.56 90.127 2.944C90.5963 3.328 91.023 3.75466 91.407 4.224C91.791 4.69333 92.0897 5.16266 92.303 5.632C90.7243 6.18666 89.0177 7.488 87.183 9.536C85.391 11.584 83.5777 14.0587 81.743 16.96C79.9083 19.8187 78.1163 22.9547 76.367 26.368C74.6603 29.7387 73.103 33.0453 71.695 36.288C70.3297 39.5307 69.1563 42.56 68.175 45.376C67.1937 48.192 66.5323 50.432 66.191 52.096ZM127.067 4.864C127.195 5.58933 127.28 6.10133 127.323 6.4C127.408 6.656 127.451 7.01866 127.451 7.488C127.451 8.896 127.131 10.2187 126.491 11.456C125.894 12.6507 125.062 13.504 123.995 14.016C123.142 12.864 122.096 11.8827 120.859 11.072C119.622 10.2187 118.256 9.536 116.763 9.024C115.312 8.46933 113.798 8.064 112.219 7.808C110.64 7.552 109.104 7.424 107.611 7.424C106.118 7.424 104.71 7.552 103.387 7.808C102.107 8.02133 100.955 8.34133 99.931 8.768C98.9497 9.152 98.1603 9.64266 97.563 10.24C97.0083 10.8373 96.731 11.52 96.731 12.288C96.859 13.2267 97.435 14.1867 98.459 15.168C99.483 16.1067 100.742 17.0453 102.235 17.984C103.728 18.88 105.371 19.776 107.163 20.672C108.998 21.568 110.79 22.4213 112.539 23.232C114.715 24.256 116.592 25.216 118.171 26.112C119.75 26.9653 121.051 27.9253 122.075 28.992C123.099 30.016 123.867 31.1893 124.379 32.512C124.891 33.8347 125.147 35.4347 125.147 37.312C125.147 39.488 124.784 41.536 124.059 43.456C123.334 45.3333 122.267 46.976 120.859 48.384C119.494 49.792 117.83 50.88 115.867 51.648C113.904 52.4587 111.707 52.864 109.275 52.864C106.886 52.864 104.304 52.5013 101.531 51.776C98.7577 51.0507 96.155 50.048 93.723 48.768C91.3337 47.5307 89.3283 46.1013 87.707 44.48C86.1283 42.816 85.339 41.0667 85.339 39.232C85.339 38.3787 85.5737 37.2907 86.043 35.968C86.555 34.6453 87.451 33.2587 88.731 31.808C88.859 33.088 89.5417 34.6027 90.779 36.352C92.059 38.1013 93.9577 39.7227 96.475 41.216C98.8217 42.5813 101.232 43.584 103.707 44.224C106.224 44.8213 108.571 45.12 110.747 45.12C113.136 45.12 115.078 44.8213 116.571 44.224C118.064 43.6267 119.238 42.9227 120.091 42.112C120.944 41.2587 121.542 40.4053 121.883 39.552C122.224 38.6987 122.416 38.016 122.459 37.504C122.416 36.6507 122.011 35.84 121.243 35.072C120.518 34.2613 119.515 33.4933 118.235 32.768C116.998 32 115.547 31.232 113.883 30.464C112.219 29.696 110.491 28.928 108.699 28.16C106.011 26.9653 103.686 25.856 101.723 24.832C99.803 23.7653 98.203 22.6987 96.923 21.632C95.6857 20.5227 94.7683 19.3707 94.171 18.176C93.6163 16.9813 93.339 15.616 93.339 14.08C93.339 11.6907 94.0643 9.42933 95.515 7.296C96.9657 5.16266 99.0563 3.54133 101.787 2.432C103.152 1.83467 104.603 1.408 106.139 1.152C107.718 0.895997 109.254 0.767998 110.747 0.767998C113.563 0.767998 116.315 1.152 119.003 1.92C121.691 2.688 124.379 3.66933 127.067 4.864Z" fill="#E2E2B6"/>
</svg>
