<svg width="160" height="60" viewBox="0 0 160 60" fill="none" xmlns="http://www.w3.org/2000/svg">
<rect width="160" height="60" rx="6" fill="#E2E2B6"/>
<mask id="path-2-inside-1_0_1" fill="white">
<path d="M42.6115 47.288C42.6115 45.496 42.9102 43.192 43.5075 40.376C44.1048 37.56 44.8942 34.552 45.8755 31.352C43.0595 31.5653 40.2222 31.8427 37.3635 32.184C34.5475 32.5253 32.0942 32.7173 30.0035 32.76C28.0835 37.24 26.5475 41.3787 25.3955 45.176C24.2862 48.9307 23.4115 52.6 22.7715 56.184C21.1502 55.8 19.8062 55.1173 18.7395 54.136C17.6728 53.1973 16.6915 52.0027 15.7955 50.552C16.1368 49.8693 16.5208 48.9947 16.9475 47.928C17.4168 46.8613 17.9502 45.5813 18.5475 44.088C19.1875 42.552 19.8915 40.7813 20.6595 38.776C21.4702 36.728 22.3875 34.36 23.4115 31.672C22.0035 31.0747 21.0648 30.2427 20.5955 29.176C20.8088 29.0053 21.2782 28.8347 22.0035 28.664C22.7715 28.4507 23.7102 28.2373 24.8195 28.024L25.6515 25.976C26.5475 23.672 27.2728 21.7307 27.8275 20.152C28.4248 18.5733 28.9155 17.0373 29.2995 15.544C29.7262 14.008 30.1102 12.3227 30.4515 10.488C30.8355 8.65333 31.2835 6.328 31.7955 3.512C33.5875 3.85333 35.2088 4.64266 36.6595 5.88C38.1528 7.11733 39.4328 8.61066 40.4995 10.36C40.1155 10.872 39.6462 11.64 39.0915 12.664C38.5368 13.688 37.9182 14.9253 37.2355 16.376C36.5955 17.784 35.8915 19.384 35.1235 21.176C34.3555 22.9253 33.5235 24.7813 32.6275 26.744C35.2728 26.4027 37.9395 26.0827 40.6275 25.784C43.3582 25.4853 45.7688 25.272 47.8595 25.144C48.6275 22.9253 49.4168 20.7707 50.2275 18.68C51.0808 16.5467 51.9128 14.6053 52.7235 12.856C53.5342 11.1067 54.3022 9.57066 55.0275 8.248C55.7955 6.92533 56.4782 5.944 57.0755 5.304C57.5022 5.34666 58.0568 5.51733 58.7395 5.816C59.4648 6.072 60.1902 6.392 60.9155 6.776C61.6408 7.16 62.3022 7.58666 62.8995 8.056C63.4968 8.48267 63.9022 8.888 64.1155 9.272C63.3475 9.99733 62.5795 10.936 61.8115 12.088C61.0435 13.24 60.2755 14.5627 59.5075 16.056C58.7822 17.5493 58.0568 19.1707 57.3315 20.92C56.6062 22.6693 55.9235 24.4827 55.2835 26.36C56.1368 27.128 56.5635 28.088 56.5635 29.24C56.5635 30.0507 56.3928 30.7973 56.0515 31.48C55.6675 31.3947 55.2835 31.352 54.8995 31.352C54.5155 31.3093 54.1102 31.2667 53.6835 31.224C52.9582 33.528 52.2968 35.8107 51.6995 38.072C51.1022 40.3333 50.5902 42.488 50.1635 44.536C49.7795 46.584 49.4595 48.4613 49.2035 50.168C48.9902 51.8747 48.8835 53.304 48.8835 54.456C48.8835 54.8827 48.8835 55.224 48.8835 55.48C48.9262 55.736 48.9688 55.9493 49.0115 56.12C48.0728 56.0773 47.3902 55.9067 46.9635 55.608C46.5368 55.352 46.2168 55.0533 46.0035 54.712C45.7902 54.4133 45.5982 54.0933 45.4275 53.752C45.2568 53.4533 44.9795 53.2187 44.5955 53.048C44.2968 52.92 44.0195 52.6213 43.7635 52.152C43.5075 51.6827 43.2942 51.1493 43.1235 50.552C42.9528 49.9547 42.8248 49.3573 42.7395 48.76C42.6542 48.1627 42.6115 47.672 42.6115 47.288ZM81.191 55.096C80.2097 55.608 79.1643 55.864 78.055 55.864C76.6897 55.6933 75.367 55.352 74.087 54.84C72.8497 54.328 71.9323 53.7093 71.335 52.984C70.9937 50.8933 70.7163 48.9733 70.503 47.224C70.2897 45.4747 70.119 43.832 69.991 42.296C69.863 40.7173 69.7777 39.224 69.735 37.816C69.6923 36.3653 69.671 34.9147 69.671 33.464C69.671 31.544 69.6923 29.5173 69.735 27.384C69.7777 25.2507 69.8203 22.9893 69.863 20.6C69.9483 18.168 70.0123 15.5867 70.055 12.856C70.0977 10.0827 70.119 7.07467 70.119 3.832C70.6737 3.832 71.5057 4.00266 72.615 4.344C73.7243 4.64266 74.8123 5.00533 75.879 5.432C76.9883 5.85867 77.9697 6.30666 78.823 6.776C79.6763 7.20266 80.1457 7.56533 80.231 7.864C79.8043 9.05866 79.4203 10.616 79.079 12.536C78.7803 14.456 78.5243 16.5893 78.311 18.936C78.1403 21.2827 78.0123 23.7573 77.927 26.36C77.8417 28.9627 77.799 31.544 77.799 34.104C77.799 36.024 77.8203 37.752 77.863 39.288C77.9057 40.7813 77.9483 42.1467 77.991 43.384C78.0763 44.5787 78.183 45.7093 78.311 46.776C78.439 47.8 78.5883 48.824 78.759 49.848C79.9537 46.2213 81.255 42.5947 82.663 38.968C84.1137 35.3413 85.5857 31.864 87.079 28.536C88.615 25.1653 90.1297 22.0293 91.623 19.128C93.1163 16.2267 94.5243 13.7093 95.847 11.576C97.2123 9.4 98.4283 7.69333 99.495 6.456C100.562 5.176 101.436 4.49333 102.119 4.408C102.588 4.49333 103.079 4.68533 103.591 4.984C104.146 5.24 104.658 5.56 105.127 5.944C105.596 6.328 106.023 6.75466 106.407 7.224C106.791 7.69333 107.09 8.16266 107.303 8.632C105.724 9.18666 104.018 10.488 102.183 12.536C100.391 14.584 98.5777 17.0587 96.743 19.96C94.9083 22.8187 93.1163 25.9547 91.367 29.368C89.6603 32.7387 88.103 36.0453 86.695 39.288C85.3297 42.5307 84.1563 45.56 83.175 48.376C82.1937 51.192 81.5323 53.432 81.191 55.096ZM142.067 7.864C142.195 8.58933 142.28 9.10133 142.323 9.4C142.408 9.656 142.451 10.0187 142.451 10.488C142.451 11.896 142.131 13.2187 141.491 14.456C140.894 15.6507 140.062 16.504 138.995 17.016C138.142 15.864 137.096 14.8827 135.859 14.072C134.622 13.2187 133.256 12.536 131.763 12.024C130.312 11.4693 128.798 11.064 127.219 10.808C125.64 10.552 124.104 10.424 122.611 10.424C121.118 10.424 119.71 10.552 118.387 10.808C117.107 11.0213 115.955 11.3413 114.931 11.768C113.95 12.152 113.16 12.6427 112.563 13.24C112.008 13.8373 111.731 14.52 111.731 15.288C111.859 16.2267 112.435 17.1867 113.459 18.168C114.483 19.1067 115.742 20.0453 117.235 20.984C118.728 21.88 120.371 22.776 122.163 23.672C123.998 24.568 125.79 25.4213 127.539 26.232C129.715 27.256 131.592 28.216 133.171 29.112C134.75 29.9653 136.051 30.9253 137.075 31.992C138.099 33.016 138.867 34.1893 139.379 35.512C139.891 36.8347 140.147 38.4347 140.147 40.312C140.147 42.488 139.784 44.536 139.059 46.456C138.334 48.3333 137.267 49.976 135.859 51.384C134.494 52.792 132.83 53.88 130.867 54.648C128.904 55.4587 126.707 55.864 124.275 55.864C121.886 55.864 119.304 55.5013 116.531 54.776C113.758 54.0507 111.155 53.048 108.723 51.768C106.334 50.5307 104.328 49.1013 102.707 47.48C101.128 45.816 100.339 44.0667 100.339 42.232C100.339 41.3787 100.574 40.2907 101.043 38.968C101.555 37.6453 102.451 36.2587 103.731 34.808C103.859 36.088 104.542 37.6027 105.779 39.352C107.059 41.1013 108.958 42.7227 111.475 44.216C113.822 45.5813 116.232 46.584 118.707 47.224C121.224 47.8213 123.571 48.12 125.747 48.12C128.136 48.12 130.078 47.8213 131.571 47.224C133.064 46.6267 134.238 45.9227 135.091 45.112C135.944 44.2587 136.542 43.4053 136.883 42.552C137.224 41.6987 137.416 41.016 137.459 40.504C137.416 39.6507 137.011 38.84 136.243 38.072C135.518 37.2613 134.515 36.4933 133.235 35.768C131.998 35 130.547 34.232 128.883 33.464C127.219 32.696 125.491 31.928 123.699 31.16C121.011 29.9653 118.686 28.856 116.723 27.832C114.803 26.7653 113.203 25.6987 111.923 24.632C110.686 23.5227 109.768 22.3707 109.171 21.176C108.616 19.9813 108.339 18.616 108.339 17.08C108.339 14.6907 109.064 12.4293 110.515 10.296C111.966 8.16266 114.056 6.54133 116.787 5.432C118.152 4.83467 119.603 4.408 121.139 4.152C122.718 3.896 124.254 3.768 125.747 3.768C128.563 3.768 131.315 4.152 134.003 4.92C136.691 5.688 139.379 6.66933 142.067 7.864Z"/>
</mask>
<path d="M42.6115 47.288C42.6115 45.496 42.9102 43.192 43.5075 40.376C44.1048 37.56 44.8942 34.552 45.8755 31.352C43.0595 31.5653 40.2222 31.8427 37.3635 32.184C34.5475 32.5253 32.0942 32.7173 30.0035 32.76C28.0835 37.24 26.5475 41.3787 25.3955 45.176C24.2862 48.9307 23.4115 52.6 22.7715 56.184C21.1502 55.8 19.8062 55.1173 18.7395 54.136C17.6728 53.1973 16.6915 52.0027 15.7955 50.552C16.1368 49.8693 16.5208 48.9947 16.9475 47.928C17.4168 46.8613 17.9502 45.5813 18.5475 44.088C19.1875 42.552 19.8915 40.7813 20.6595 38.776C21.4702 36.728 22.3875 34.36 23.4115 31.672C22.0035 31.0747 21.0648 30.2427 20.5955 29.176C20.8088 29.0053 21.2782 28.8347 22.0035 28.664C22.7715 28.4507 23.7102 28.2373 24.8195 28.024L25.6515 25.976C26.5475 23.672 27.2728 21.7307 27.8275 20.152C28.4248 18.5733 28.9155 17.0373 29.2995 15.544C29.7262 14.008 30.1102 12.3227 30.4515 10.488C30.8355 8.65333 31.2835 6.328 31.7955 3.512C33.5875 3.85333 35.2088 4.64266 36.6595 5.88C38.1528 7.11733 39.4328 8.61066 40.4995 10.36C40.1155 10.872 39.6462 11.64 39.0915 12.664C38.5368 13.688 37.9182 14.9253 37.2355 16.376C36.5955 17.784 35.8915 19.384 35.1235 21.176C34.3555 22.9253 33.5235 24.7813 32.6275 26.744C35.2728 26.4027 37.9395 26.0827 40.6275 25.784C43.3582 25.4853 45.7688 25.272 47.8595 25.144C48.6275 22.9253 49.4168 20.7707 50.2275 18.68C51.0808 16.5467 51.9128 14.6053 52.7235 12.856C53.5342 11.1067 54.3022 9.57066 55.0275 8.248C55.7955 6.92533 56.4782 5.944 57.0755 5.304C57.5022 5.34666 58.0568 5.51733 58.7395 5.816C59.4648 6.072 60.1902 6.392 60.9155 6.776C61.6408 7.16 62.3022 7.58666 62.8995 8.056C63.4968 8.48267 63.9022 8.888 64.1155 9.272C63.3475 9.99733 62.5795 10.936 61.8115 12.088C61.0435 13.24 60.2755 14.5627 59.5075 16.056C58.7822 17.5493 58.0568 19.1707 57.3315 20.92C56.6062 22.6693 55.9235 24.4827 55.2835 26.36C56.1368 27.128 56.5635 28.088 56.5635 29.24C56.5635 30.0507 56.3928 30.7973 56.0515 31.48C55.6675 31.3947 55.2835 31.352 54.8995 31.352C54.5155 31.3093 54.1102 31.2667 53.6835 31.224C52.9582 33.528 52.2968 35.8107 51.6995 38.072C51.1022 40.3333 50.5902 42.488 50.1635 44.536C49.7795 46.584 49.4595 48.4613 49.2035 50.168C48.9902 51.8747 48.8835 53.304 48.8835 54.456C48.8835 54.8827 48.8835 55.224 48.8835 55.48C48.9262 55.736 48.9688 55.9493 49.0115 56.12C48.0728 56.0773 47.3902 55.9067 46.9635 55.608C46.5368 55.352 46.2168 55.0533 46.0035 54.712C45.7902 54.4133 45.5982 54.0933 45.4275 53.752C45.2568 53.4533 44.9795 53.2187 44.5955 53.048C44.2968 52.92 44.0195 52.6213 43.7635 52.152C43.5075 51.6827 43.2942 51.1493 43.1235 50.552C42.9528 49.9547 42.8248 49.3573 42.7395 48.76C42.6542 48.1627 42.6115 47.672 42.6115 47.288ZM81.191 55.096C80.2097 55.608 79.1643 55.864 78.055 55.864C76.6897 55.6933 75.367 55.352 74.087 54.84C72.8497 54.328 71.9323 53.7093 71.335 52.984C70.9937 50.8933 70.7163 48.9733 70.503 47.224C70.2897 45.4747 70.119 43.832 69.991 42.296C69.863 40.7173 69.7777 39.224 69.735 37.816C69.6923 36.3653 69.671 34.9147 69.671 33.464C69.671 31.544 69.6923 29.5173 69.735 27.384C69.7777 25.2507 69.8203 22.9893 69.863 20.6C69.9483 18.168 70.0123 15.5867 70.055 12.856C70.0977 10.0827 70.119 7.07467 70.119 3.832C70.6737 3.832 71.5057 4.00266 72.615 4.344C73.7243 4.64266 74.8123 5.00533 75.879 5.432C76.9883 5.85867 77.9697 6.30666 78.823 6.776C79.6763 7.20266 80.1457 7.56533 80.231 7.864C79.8043 9.05866 79.4203 10.616 79.079 12.536C78.7803 14.456 78.5243 16.5893 78.311 18.936C78.1403 21.2827 78.0123 23.7573 77.927 26.36C77.8417 28.9627 77.799 31.544 77.799 34.104C77.799 36.024 77.8203 37.752 77.863 39.288C77.9057 40.7813 77.9483 42.1467 77.991 43.384C78.0763 44.5787 78.183 45.7093 78.311 46.776C78.439 47.8 78.5883 48.824 78.759 49.848C79.9537 46.2213 81.255 42.5947 82.663 38.968C84.1137 35.3413 85.5857 31.864 87.079 28.536C88.615 25.1653 90.1297 22.0293 91.623 19.128C93.1163 16.2267 94.5243 13.7093 95.847 11.576C97.2123 9.4 98.4283 7.69333 99.495 6.456C100.562 5.176 101.436 4.49333 102.119 4.408C102.588 4.49333 103.079 4.68533 103.591 4.984C104.146 5.24 104.658 5.56 105.127 5.944C105.596 6.328 106.023 6.75466 106.407 7.224C106.791 7.69333 107.09 8.16266 107.303 8.632C105.724 9.18666 104.018 10.488 102.183 12.536C100.391 14.584 98.5777 17.0587 96.743 19.96C94.9083 22.8187 93.1163 25.9547 91.367 29.368C89.6603 32.7387 88.103 36.0453 86.695 39.288C85.3297 42.5307 84.1563 45.56 83.175 48.376C82.1937 51.192 81.5323 53.432 81.191 55.096ZM142.067 7.864C142.195 8.58933 142.28 9.10133 142.323 9.4C142.408 9.656 142.451 10.0187 142.451 10.488C142.451 11.896 142.131 13.2187 141.491 14.456C140.894 15.6507 140.062 16.504 138.995 17.016C138.142 15.864 137.096 14.8827 135.859 14.072C134.622 13.2187 133.256 12.536 131.763 12.024C130.312 11.4693 128.798 11.064 127.219 10.808C125.64 10.552 124.104 10.424 122.611 10.424C121.118 10.424 119.71 10.552 118.387 10.808C117.107 11.0213 115.955 11.3413 114.931 11.768C113.95 12.152 113.16 12.6427 112.563 13.24C112.008 13.8373 111.731 14.52 111.731 15.288C111.859 16.2267 112.435 17.1867 113.459 18.168C114.483 19.1067 115.742 20.0453 117.235 20.984C118.728 21.88 120.371 22.776 122.163 23.672C123.998 24.568 125.79 25.4213 127.539 26.232C129.715 27.256 131.592 28.216 133.171 29.112C134.75 29.9653 136.051 30.9253 137.075 31.992C138.099 33.016 138.867 34.1893 139.379 35.512C139.891 36.8347 140.147 38.4347 140.147 40.312C140.147 42.488 139.784 44.536 139.059 46.456C138.334 48.3333 137.267 49.976 135.859 51.384C134.494 52.792 132.83 53.88 130.867 54.648C128.904 55.4587 126.707 55.864 124.275 55.864C121.886 55.864 119.304 55.5013 116.531 54.776C113.758 54.0507 111.155 53.048 108.723 51.768C106.334 50.5307 104.328 49.1013 102.707 47.48C101.128 45.816 100.339 44.0667 100.339 42.232C100.339 41.3787 100.574 40.2907 101.043 38.968C101.555 37.6453 102.451 36.2587 103.731 34.808C103.859 36.088 104.542 37.6027 105.779 39.352C107.059 41.1013 108.958 42.7227 111.475 44.216C113.822 45.5813 116.232 46.584 118.707 47.224C121.224 47.8213 123.571 48.12 125.747 48.12C128.136 48.12 130.078 47.8213 131.571 47.224C133.064 46.6267 134.238 45.9227 135.091 45.112C135.944 44.2587 136.542 43.4053 136.883 42.552C137.224 41.6987 137.416 41.016 137.459 40.504C137.416 39.6507 137.011 38.84 136.243 38.072C135.518 37.2613 134.515 36.4933 133.235 35.768C131.998 35 130.547 34.232 128.883 33.464C127.219 32.696 125.491 31.928 123.699 31.16C121.011 29.9653 118.686 28.856 116.723 27.832C114.803 26.7653 113.203 25.6987 111.923 24.632C110.686 23.5227 109.768 22.3707 109.171 21.176C108.616 19.9813 108.339 18.616 108.339 17.08C108.339 14.6907 109.064 12.4293 110.515 10.296C111.966 8.16266 114.056 6.54133 116.787 5.432C118.152 4.83467 119.603 4.408 121.139 4.152C122.718 3.896 124.254 3.768 125.747 3.768C128.563 3.768 131.315 4.152 134.003 4.92C136.691 5.688 139.379 6.66933 142.067 7.864Z" fill="#021526"/>
<path d="M43.5075 40.376L-103.228 9.25024L-103.228 9.25044L43.5075 40.376ZM45.8755 31.352L189.284 75.3305L253.731 -134.824L34.5444 -118.219L45.8755 31.352ZM37.3635 32.184L19.5793 -116.758L19.4466 -116.742L19.3138 -116.726L37.3635 32.184ZM30.0035 32.76L26.943 -117.209L-69.7652 -115.235L-107.868 -26.3279L30.0035 32.76ZM25.3955 45.176L-118.145 1.63014L-118.303 2.15154L-118.457 2.67407L25.3955 45.176ZM22.7715 56.184L-11.7984 202.146L142.552 238.703L170.436 82.5526L22.7715 56.184ZM18.7395 54.136L120.298 -56.2536L119.078 -57.376L117.834 -58.471L18.7395 54.136ZM15.7955 50.552L-118.369 -16.53L-155.757 58.2467L-111.824 129.376L15.7955 50.552ZM16.9475 47.928L-120.35 -12.4828L-121.377 -10.1485L-122.324 -7.78059L16.9475 47.928ZM18.5475 44.088L-119.914 -13.6043L-120.326 -12.6154L-120.724 -11.6206L18.5475 44.088ZM20.6595 38.776L-118.811 -16.4313L-119.12 -15.6529L-119.419 -14.8711L20.6595 38.776ZM23.4115 31.672L163.585 85.0713L215.031 -49.9753L81.994 -106.415L23.4115 31.672ZM20.5955 29.176L-73.1088 -87.9543L-163.132 -15.9359L-116.702 89.5868L20.5955 29.176ZM22.0035 28.664L56.3592 174.677L59.2694 173.992L62.1501 173.192L22.0035 28.664ZM24.8195 28.024L53.1467 175.325L133.133 159.943L163.789 84.4805L24.8195 28.024ZM25.6515 25.976L164.621 82.4325L165.045 81.3909L165.452 80.3429L25.6515 25.976ZM27.8275 20.152L-112.465 -32.9318L-113.099 -31.2587L-113.692 -29.5709L27.8275 20.152ZM29.2995 15.544L-115.228 -24.6025L-115.615 -23.211L-115.974 -21.8122L29.2995 15.544ZM30.4515 10.488L-116.367 -20.2414L-116.711 -18.5984L-117.018 -16.9483L30.4515 10.488ZM31.7955 3.512L59.8624 -143.839L-88.7266 -172.142L-115.785 -23.3209L31.7955 3.512ZM36.6595 5.88L-60.6824 120.005L-59.8677 120.7L-59.0432 121.383L36.6595 5.88ZM40.4995 10.36L160.5 100.36L221.483 19.0483L168.569 -67.7311L40.4995 10.36ZM37.2355 16.376L-98.4873 -47.4935L-98.9094 -46.5967L-99.3195 -45.6944L37.2355 16.376ZM35.1235 21.176L172.47 81.4745L172.735 80.8704L172.995 80.2639L35.1235 21.176ZM32.6275 26.744L-103.826 -35.5498L-215.953 210.063L51.8232 175.511L32.6275 26.744ZM40.6275 25.784L24.3185 -123.327L24.1906 -123.313L24.0628 -123.299L40.6275 25.784ZM47.8595 25.144L57.026 174.864L156.882 168.75L189.607 74.2106L47.8595 25.144ZM50.2275 18.68L-89.044 -37.0287L-89.3392 -36.2905L-89.6267 -35.5492L50.2275 18.68ZM55.0275 8.248L-74.691 -67.0721L-75.6122 -65.4856L-76.4943 -63.8769L55.0275 8.248ZM57.0755 5.304L72.0008 -143.952L-1.90438 -151.342L-52.5827 -97.0438L57.0755 5.304ZM58.7395 5.816L-1.38362 143.239L3.64291 145.439L8.81667 147.265L58.7395 5.816ZM60.9155 6.776L-9.26781 139.344L-9.26761 139.344L60.9155 6.776ZM62.8995 8.056L-29.7739 126.004L-27.0771 128.123L-24.2862 130.116L62.8995 8.056ZM64.1155 9.272L167.109 118.324L251.838 38.3028L195.239 -63.5744L64.1155 9.272ZM61.8115 12.088L-62.996 -71.117L-62.9962 -71.1168L61.8115 12.088ZM59.5075 16.056L-73.8857 -52.5462L-74.6697 -51.0217L-75.4187 -49.4797L59.5075 16.056ZM57.3315 20.92L-81.2298 -36.5323L-81.2299 -36.5321L57.3315 20.92ZM55.2835 26.36L-86.693 -22.0412L-118.63 71.6419L-45.0611 137.854L55.2835 26.36ZM56.0515 31.48L23.5119 177.908L137.839 203.314L190.216 98.5621L56.0515 31.48ZM54.8995 31.352L38.3345 180.435L46.5916 181.352H54.8995V31.352ZM53.6835 31.224L68.6089 -118.032L-52.7651 -130.169L-89.3939 -13.8189L53.6835 31.224ZM51.6995 38.072L196.725 76.3807L196.725 76.3807L51.6995 38.072ZM50.1635 44.536L-96.6836 13.9429L-96.9902 15.4149L-97.2673 16.8927L50.1635 44.536ZM49.2035 50.168L-99.137 27.917L-99.4099 29.7368L-99.6382 31.5628L49.2035 50.168ZM48.8835 55.48H-101.116V67.8942L-99.0756 80.1395L48.8835 55.48ZM49.0115 56.12L42.2003 205.965L243.375 215.11L194.533 19.7401L49.0115 56.12ZM46.9635 55.608L132.983 -67.2768L128.661 -70.3018L124.138 -73.0159L46.9635 55.608ZM46.0035 54.712L173.203 -24.7878L170.752 -28.71L168.064 -32.4737L46.0035 54.712ZM45.4275 53.752L179.592 -13.3301L177.73 -17.0541L175.664 -20.669L45.4275 53.752ZM44.5955 53.048L105.516 -84.0237L104.603 -84.4298L103.684 -84.8237L44.5955 53.048ZM43.7635 52.152L-87.9209 123.98L-87.9206 123.98L43.7635 52.152ZM43.1235 50.552L-101.105 91.76L-101.105 91.7602L43.1235 50.552ZM42.7395 48.76L-105.753 69.9732L-105.753 69.9732L42.7395 48.76ZM192.612 47.288C192.612 54.4019 192.042 60.0198 191.591 63.4991C191.121 67.124 190.588 69.8731 190.243 71.5016L-103.228 9.25044C-104.859 16.9418 -107.388 30.6999 -107.388 47.288H192.612ZM190.243 71.5018C189.788 73.6452 189.397 74.9594 189.284 75.3305L-97.5326 -12.6265C-99.6091 -5.85538 -101.578 1.47482 -103.228 9.25024L190.243 71.5018ZM34.5444 -118.219C29.5318 -117.84 24.5427 -117.351 19.5793 -116.758L55.1477 181.126C55.9016 181.036 56.5872 180.97 57.2067 180.923L34.5444 -118.219ZM19.3138 -116.726C19.7064 -116.774 20.525 -116.866 21.7082 -116.959C22.8712 -117.05 24.654 -117.162 26.943 -117.209L33.064 182.729C41.5697 182.555 49.244 181.842 55.4132 181.094L19.3138 -116.726ZM-107.868 -26.3279C-111.493 -17.8704 -115.078 -8.47714 -118.145 1.63014L168.936 88.7219C168.537 90.0358 168.213 90.9451 168.039 91.4156C167.862 91.8915 167.792 92.0431 167.875 91.8479L-107.868 -26.3279ZM-118.457 2.67407C-121.017 11.339 -123.211 20.3983 -124.893 29.8154L170.436 82.5526C170.034 84.8017 169.59 86.5223 169.248 87.6779L-118.457 2.67407ZM57.3414 -89.778C76.9444 -85.1352 99.7819 -75.1284 120.298 -56.2536L-82.819 164.526C-60.1696 185.363 -34.6441 196.735 -11.7984 202.146L57.3414 -89.778ZM117.834 -58.471C129.855 -47.8923 138.029 -36.9932 143.415 -28.2719L-111.824 129.376C-104.646 140.999 -94.5093 154.287 -80.3547 166.743L117.834 -58.471ZM149.96 117.634C152.835 111.882 154.935 106.847 156.219 103.637L-122.324 -7.78059C-122.04 -8.4912 -121.599 -9.56587 -121.007 -10.9145C-120.432 -12.2246 -119.551 -14.1655 -118.369 -16.53L149.96 117.634ZM154.245 108.339C155.6 105.259 156.808 102.324 157.819 99.7966L-120.724 -11.6206C-120.798 -11.4353 -120.809 -11.411 -120.762 -11.5243C-120.718 -11.6296 -120.578 -11.9641 -120.35 -12.4828L154.245 108.339ZM157.009 101.78C158.34 98.5853 159.591 95.4187 160.738 92.4231L-119.419 -14.8711C-119.604 -14.3877 -119.741 -14.0389 -119.832 -13.8109C-119.924 -13.5795 -119.95 -13.5183 -119.914 -13.6043L157.009 101.78ZM160.13 93.9833C161.238 91.1852 162.396 88.1925 163.585 85.0713L-116.762 -21.7273C-117.621 -19.4725 -118.298 -17.7292 -118.811 -16.4313L160.13 93.9833ZM81.994 -106.415C104.447 -96.8898 138.651 -74.9657 157.893 -31.2348L-116.702 89.5868C-96.5215 135.451 -60.4399 159.039 -35.171 169.759L81.994 -106.415ZM114.3 146.306C103.577 154.884 93.8332 160.238 87.8855 163.212C81.5467 166.382 76.1071 168.53 72.3689 169.889C65.0984 172.533 59.2336 174 56.3592 174.677L-12.3522 -117.349C-15.9519 -116.502 -22.4141 -114.864 -30.1539 -112.049C-35.2393 -110.2 -53.7491 -103.442 -73.1088 -87.9543L114.3 146.306ZM62.1501 173.192C57.7854 174.404 54.5203 175.061 53.1467 175.325L-3.50774 -119.277C-7.09992 -118.586 -12.2424 -117.503 -18.1431 -115.864L62.1501 173.192ZM163.789 84.4805L164.621 82.4325L-113.318 -30.4805L-114.15 -28.4325L163.789 84.4805ZM165.452 80.3429C166.694 77.1507 168.054 73.5534 169.347 69.8749L-113.692 -29.5709C-113.577 -29.8977 -113.55 -29.9628 -113.645 -29.7073C-113.735 -29.4657 -113.898 -29.036 -114.149 -28.3909L165.452 80.3429ZM168.12 73.2358C170.485 66.9868 172.698 60.1955 174.573 52.9002L-115.974 -21.8122C-114.867 -26.1208 -113.635 -29.8402 -112.465 -32.9318L168.12 73.2358ZM173.827 55.6905C175.594 49.3284 176.914 43.3365 177.921 37.9243L-117.018 -16.9483C-116.694 -18.6912 -116.142 -21.3124 -115.228 -24.6025L173.827 55.6905ZM177.27 41.2174C178.027 37.6033 178.736 33.8632 179.376 30.3449L-115.785 -23.3209C-115.966 -22.3262 -116.109 -21.565 -116.216 -21.0092C-116.326 -20.4384 -116.375 -20.2043 -116.367 -20.2414L177.27 41.2174ZM3.72863 150.863C-21.241 146.107 -43.2495 134.874 -60.6824 120.005L134.001 -108.245C113.667 -125.589 88.416 -138.4 59.8624 -143.839L3.72863 150.863ZM-59.0432 121.383C-71.0422 111.441 -80.4841 100.072 -87.5699 88.4511L168.569 -67.7311C159.35 -82.8506 147.348 -97.2065 132.362 -109.623L-59.0432 121.383ZM-79.5006 -79.6399C-86.5007 -70.3064 -91.0857 -61.9475 -92.8023 -58.7785L170.985 84.1065C170.36 85.2612 169.302 87.1638 167.852 89.5375C166.519 91.7189 164.039 95.6406 160.5 100.36L-79.5006 -79.6399ZM-92.8023 -58.7785C-95.098 -54.5403 -97.0124 -50.6278 -98.4873 -47.4935L172.958 80.2455C172.87 80.4327 172.674 80.8451 172.376 81.442C172.083 82.0266 171.617 82.9406 170.985 84.1065L-92.8023 -58.7785ZM-99.3195 -45.6944C-100.507 -43.0821 -101.657 -40.4592 -102.748 -37.9119L172.995 80.2639C173.44 79.2272 173.698 78.6501 173.79 78.4464L-99.3195 -45.6944ZM-102.223 -39.1225C-102.664 -38.119 -103.194 -36.9325 -103.826 -35.5498L169.081 89.0378C170.241 86.4952 171.375 83.9697 172.47 81.4745L-102.223 -39.1225ZM51.8232 175.511C53.5804 175.284 55.3699 175.069 57.1922 174.867L24.0628 -123.299C20.5091 -122.904 16.9653 -122.479 13.4318 -122.023L51.8232 175.511ZM56.9365 174.895C57.1678 174.869 57.348 174.851 57.4797 174.838C57.6118 174.825 57.6861 174.818 57.7061 174.816C57.7266 174.814 57.6809 174.818 57.5733 174.827C57.4664 174.835 57.282 174.848 57.026 174.864L38.693 -124.576C33.6172 -124.265 28.7412 -123.81 24.3185 -123.327L56.9365 174.895ZM189.607 74.2106C189.804 73.6437 189.964 73.213 190.082 72.9092L-89.6267 -35.5492C-91.1302 -31.6717 -92.5487 -27.793 -93.8884 -23.9226L189.607 74.2106ZM189.499 74.3887C189.541 74.2834 189.321 74.8438 188.82 75.9251L-83.3731 -50.2131C-85.4955 -45.6332 -87.3794 -41.19 -89.044 -37.0287L189.499 74.3887ZM188.82 75.9251C188.577 76.4493 187.824 78.0488 186.549 80.3729L-76.4943 -63.8769C-79.2195 -58.9075 -81.5089 -54.2359 -83.3731 -50.2131L188.82 75.9251ZM184.746 83.5681C183.612 85.5206 181.782 88.5417 179.251 92.1796C176.87 95.6022 172.718 101.24 166.734 107.652L-52.5827 -97.0438C-64.5015 -84.2737 -71.7949 -72.0599 -74.691 -67.0721L184.746 83.5681ZM42.1502 154.56C29.6928 153.314 19.8381 150.72 13.6986 148.831C7.25762 146.849 2.11255 144.769 -1.38362 143.239L118.863 -131.607C112.759 -134.278 95.4188 -141.61 72.0008 -143.952L42.1502 154.56ZM8.81667 147.265C2.13335 144.906 -3.899 142.186 -9.26781 139.344L131.099 -125.792C124.279 -129.402 116.796 -132.762 108.662 -135.633L8.81667 147.265ZM-9.26761 139.344C-15.8333 135.868 -22.7892 131.492 -29.7739 126.004L155.573 -109.892C147.393 -116.318 139.115 -121.548 131.099 -125.792L-9.26761 139.344ZM-24.2862 130.116C-28.9457 126.788 -35.419 121.742 -42.4145 114.746C-49.2468 107.914 -58.6494 97.164 -67.0081 82.1184L195.239 -63.5744C179.29 -92.2824 158.182 -108.221 150.085 -114.004L-24.2862 130.116ZM-38.8779 -99.7801C-49.9504 -89.3228 -57.7718 -78.9535 -62.996 -71.117L186.619 95.293C182.931 100.825 176.645 109.317 167.109 118.324L-38.8779 -99.7801ZM-62.9962 -71.1168C-67.4742 -64.3998 -71.0556 -58.0492 -73.8857 -52.5462L192.901 84.6582C191.607 87.1745 189.561 90.8798 186.619 95.2928L-62.9962 -71.1168ZM-75.4187 -49.4797C-77.5993 -44.9902 -79.5264 -40.6405 -81.2298 -36.5323L195.893 78.3723C195.64 78.9818 195.164 80.0888 194.434 81.5917L-75.4187 -49.4797ZM-81.2299 -36.5321C-83.2471 -31.667 -85.061 -26.8285 -86.693 -22.0412L197.26 74.7612C196.908 75.7938 196.459 77.0056 195.893 78.3721L-81.2299 -36.5321ZM-45.0611 137.854C-58.8246 125.467 -71.719 109.072 -80.8282 88.5769C-89.9318 68.0938 -93.4365 47.6073 -93.4365 29.24H206.564C206.564 -14.2672 188.213 -55.8077 155.628 -85.1342L-45.0611 137.854ZM-93.4365 29.24C-93.4365 8.24748 -88.8292 -14.1689 -78.1125 -35.6021L190.216 98.5621C201.615 75.7635 206.564 51.8539 206.564 29.24H-93.4365ZM88.5911 -114.948C77.7847 -117.349 66.4924 -118.648 54.8995 -118.648V181.352C44.0746 181.352 33.5503 180.139 23.5119 177.908L88.5911 -114.948ZM71.4645 -117.731C70.4789 -117.84 69.524 -117.94 68.6089 -118.032L38.7581 180.48C38.6963 180.473 38.5521 180.459 38.3345 180.435L71.4645 -117.731ZM-89.3939 -13.8189C-90.7982 -9.35808 -92.1129 -4.82986 -93.3262 -0.236653L196.725 76.3807C196.707 76.4512 196.715 76.4141 196.761 76.2669L-89.3939 -13.8189ZM-93.3262 -0.236663C-94.5211 4.28713 -95.6594 9.02694 -96.6836 13.9429L197.011 75.1291C196.84 75.9491 196.725 76.3795 196.725 76.3807L-93.3262 -0.236663ZM-97.2673 16.8927C-97.9212 20.3799 -98.5621 24.0846 -99.137 27.917L197.544 72.419C197.51 72.6464 197.493 72.7395 197.503 72.6846C197.512 72.6316 197.541 72.4662 197.594 72.1793L-97.2673 16.8927ZM-99.6382 31.5628C-100.287 36.7512 -101.116 44.8612 -101.116 54.456H198.884C198.884 58.3722 198.708 61.5363 198.548 63.683C198.383 65.8866 198.189 67.6228 198.045 68.7732L-99.6382 31.5628ZM-101.116 54.456C-101.116 54.4568 -101.116 54.4577 -101.116 54.4585C-101.116 54.4593 -101.116 54.4602 -101.116 54.461C-101.116 54.4618 -101.116 54.4627 -101.116 54.4635C-101.116 54.4643 -101.116 54.4652 -101.116 54.466C-101.116 54.4668 -101.116 54.4676 -101.116 54.4685C-101.116 54.4693 -101.116 54.4701 -101.116 54.471C-101.116 54.4718 -101.116 54.4726 -101.116 54.4735C-101.116 54.4743 -101.116 54.4751 -101.116 54.4759C-101.116 54.4768 -101.116 54.4776 -101.116 54.4784C-101.116 54.4792 -101.116 54.4801 -101.116 54.4809C-101.116 54.4817 -101.116 54.4826 -101.116 54.4834C-101.116 54.4842 -101.116 54.485 -101.116 54.4859C-101.116 54.4867 -101.116 54.4875 -101.116 54.4883C-101.116 54.4892 -101.116 54.49 -101.116 54.4908C-101.116 54.4916 -101.116 54.4925 -101.116 54.4933C-101.116 54.4941 -101.116 54.4949 -101.116 54.4958C-101.116 54.4966 -101.116 54.4974 -101.116 54.4982C-101.116 54.499 -101.116 54.4999 -101.116 54.5007C-101.116 54.5015 -101.116 54.5023 -101.116 54.5031C-101.116 54.504 -101.116 54.5048 -101.116 54.5056C-101.116 54.5064 -101.116 54.5072 -101.116 54.5081C-101.116 54.5089 -101.116 54.5097 -101.116 54.5105C-101.116 54.5113 -101.116 54.5122 -101.116 54.513C-101.116 54.5138 -101.116 54.5146 -101.116 54.5154C-101.116 54.5163 -101.116 54.5171 -101.116 54.5179C-101.116 54.5187 -101.116 54.5195 -101.116 54.5203C-101.116 54.5212 -101.116 54.522 -101.116 54.5228C-101.116 54.5236 -101.116 54.5244 -101.116 54.5252C-101.116 54.526 -101.116 54.5269 -101.116 54.5277C-101.116 54.5285 -101.116 54.5293 -101.116 54.5301C-101.116 54.5309 -101.116 54.5317 -101.116 54.5326C-101.116 54.5334 -101.116 54.5342 -101.116 54.535C-101.116 54.5358 -101.116 54.5366 -101.116 54.5374C-101.116 54.5382 -101.116 54.5391 -101.116 54.5399C-101.116 54.5407 -101.116 54.5415 -101.116 54.5423C-101.116 54.5431 -101.116 54.5439 -101.116 54.5447C-101.116 54.5455 -101.116 54.5464 -101.116 54.5472C-101.116 54.548 -101.116 54.5488 -101.116 54.5496C-101.116 54.5504 -101.116 54.5512 -101.116 54.552C-101.116 54.5528 -101.116 54.5536 -101.116 54.5544C-101.116 54.5552 -101.116 54.5561 -101.116 54.5569C-101.116 54.5577 -101.116 54.5585 -101.116 54.5593C-101.116 54.5601 -101.116 54.5609 -101.116 54.5617C-101.116 54.5625 -101.116 54.5633 -101.116 54.5641C-101.116 54.5649 -101.116 54.5657 -101.116 54.5665C-101.116 54.5673 -101.116 54.5681 -101.116 54.5689C-101.116 54.5697 -101.116 54.5705 -101.116 54.5713C-101.116 54.5721 -101.116 54.5729 -101.116 54.5738C-101.116 54.5746 -101.116 54.5754 -101.116 54.5762C-101.116 54.577 -101.116 54.5778 -101.116 54.5786C-101.116 54.5794 -101.116 54.5802 -101.116 54.581C-101.116 54.5818 -101.116 54.5826 -101.116 54.5834C-101.116 54.5842 -101.116 54.585 -101.116 54.5858C-101.116 54.5866 -101.116 54.5874 -101.116 54.5882C-101.116 54.589 -101.116 54.5897 -101.116 54.5905C-101.116 54.5913 -101.116 54.5921 -101.116 54.5929C-101.116 54.5937 -101.116 54.5945 -101.116 54.5953C-101.116 54.5961 -101.116 54.5969 -101.116 54.5977C-101.116 54.5985 -101.116 54.5993 -101.116 54.6001C-101.116 54.6009 -101.116 54.6017 -101.116 54.6025C-101.116 54.6033 -101.116 54.6041 -101.116 54.6049C-101.116 54.6057 -101.116 54.6065 -101.116 54.6072C-101.116 54.608 -101.116 54.6088 -101.116 54.6096C-101.116 54.6104 -101.116 54.6112 -101.116 54.612C-101.116 54.6128 -101.116 54.6136 -101.116 54.6144C-101.116 54.6152 -101.116 54.616 -101.116 54.6167C-101.116 54.6175 -101.116 54.6183 -101.116 54.6191C-101.116 54.6199 -101.116 54.6207 -101.116 54.6215C-101.116 54.6223 -101.116 54.6231 -101.116 54.6239C-101.116 54.6246 -101.116 54.6254 -101.116 54.6262C-101.116 54.627 -101.116 54.6278 -101.116 54.6286C-101.116 54.6294 -101.116 54.6302 -101.116 54.6309C-101.116 54.6317 -101.116 54.6325 -101.116 54.6333C-101.116 54.6341 -101.116 54.6349 -101.116 54.6357C-101.116 54.6364 -101.116 54.6372 -101.116 54.638C-101.116 54.6388 -101.116 54.6396 -101.116 54.6404C-101.116 54.6411 -101.116 54.6419 -101.116 54.6427C-101.116 54.6435 -101.116 54.6443 -101.116 54.6451C-101.116 54.6458 -101.116 54.6466 -101.116 54.6474C-101.116 54.6482 -101.116 54.649 -101.116 54.6498C-101.116 54.6505 -101.116 54.6513 -101.116 54.6521C-101.116 54.6529 -101.116 54.6537 -101.116 54.6544C-101.116 54.6552 -101.116 54.656 -101.116 54.6568C-101.116 54.6576 -101.116 54.6583 -101.116 54.6591C-101.116 54.6599 -101.116 54.6607 -101.116 54.6614C-101.116 54.6622 -101.116 54.663 -101.116 54.6638C-101.116 54.6646 -101.116 54.6653 -101.116 54.6661C-101.116 54.6669 -101.116 54.6677 -101.116 54.6684C-101.116 54.6692 -101.116 54.67 -101.116 54.6708C-101.116 54.6715 -101.116 54.6723 -101.116 54.6731C-101.116 54.6739 -101.116 54.6746 -101.116 54.6754C-101.116 54.6762 -101.116 54.677 -101.116 54.6777C-101.116 54.6785 -101.116 54.6793 -101.116 54.6801C-101.116 54.6808 -101.116 54.6816 -101.116 54.6824C-101.116 54.6831 -101.116 54.6839 -101.116 54.6847C-101.116 54.6855 -101.116 54.6862 -101.116 54.687C-101.116 54.6878 -101.116 54.6885 -101.116 54.6893C-101.116 54.6901 -101.116 54.6909 -101.116 54.6916C-101.116 54.6924 -101.116 54.6932 -101.116 54.6939C-101.116 54.6947 -101.116 54.6955 -101.116 54.6962C-101.116 54.697 -101.116 54.6978 -101.116 54.6985C-101.116 54.6993 -101.116 54.7001 -101.116 54.7008C-101.116 54.7016 -101.116 54.7024 -101.116 54.7031C-101.116 54.7039 -101.116 54.7047 -101.116 54.7054C-101.116 54.7062 -101.116 54.707 -101.116 54.7077C-101.116 54.7085 -101.116 54.7093 -101.116 54.71C-101.116 54.7108 -101.116 54.7116 -101.116 54.7123C-101.116 54.7131 -101.116 54.7138 -101.116 54.7146C-101.116 54.7154 -101.116 54.7161 -101.116 54.7169C-101.116 54.7177 -101.116 54.7184 -101.116 54.7192C-101.116 54.7199 -101.116 54.7207 -101.116 54.7215C-101.116 54.7222 -101.116 54.723 -101.116 54.7238C-101.116 54.7245 -101.116 54.7253 -101.116 54.726C-101.116 54.7268 -101.116 54.7275 -101.116 54.7283C-101.116 54.7291 -101.116 54.7298 -101.116 54.7306C-101.116 54.7313 -101.116 54.7321 -101.116 54.7329C-101.116 54.7336 -101.116 54.7344 -101.116 54.7351C-101.116 54.7359 -101.116 54.7366 -101.116 54.7374C-101.116 54.7382 -101.116 54.7389 -101.116 54.7397C-101.116 54.7404 -101.116 54.7412 -101.116 54.7419C-101.116 54.7427 -101.116 54.7434 -101.116 54.7442C-101.116 54.745 -101.116 54.7457 -101.116 54.7465C-101.116 54.7472 -101.116 54.748 -101.116 54.7487C-101.116 54.7495 -101.116 54.7502 -101.116 54.751C-101.116 54.7517 -101.116 54.7525 -101.116 54.7532C-101.116 54.754 -101.116 54.7547 -101.116 54.7555C-101.116 54.7562 -101.116 54.757 -101.116 54.7577C-101.116 54.7585 -101.116 54.7593 -101.116 54.76C-101.116 54.7608 -101.116 54.7615 -101.116 54.7622C-101.116 54.763 -101.116 54.7637 -101.116 54.7645C-101.116 54.7652 -101.116 54.766 -101.116 54.7667C-101.116 54.7675 -101.116 54.7682 -101.116 54.769C-101.116 54.7697 -101.116 54.7705 -101.116 54.7712C-101.116 54.772 -101.116 54.7727 -101.116 54.7735C-101.116 54.7742 -101.116 54.775 -101.116 54.7757C-101.116 54.7764 -101.116 54.7772 -101.116 54.7779C-101.116 54.7787 -101.116 54.7794 -101.116 54.7802C-101.116 54.7809 -101.116 54.7817 -101.116 54.7824C-101.116 54.7831 -101.116 54.7839 -101.116 54.7846C-101.116 54.7854 -101.116 54.7861 -101.116 54.7869C-101.116 54.7876 -101.116 54.7883 -101.116 54.7891C-101.116 54.7898 -101.116 54.7906 -101.116 54.7913C-101.116 54.792 -101.116 54.7928 -101.116 54.7935C-101.116 54.7943 -101.116 54.795 -101.116 54.7958C-101.116 54.7965 -101.116 54.7972 -101.116 54.798C-101.116 54.7987 -101.116 54.7994 -101.116 54.8002C-101.116 54.8009 -101.116 54.8017 -101.116 54.8024C-101.116 54.8031 -101.116 54.8039 -101.116 54.8046C-101.116 54.8053 -101.116 54.8061 -101.116 54.8068C-101.116 54.8076 -101.116 54.8083 -101.116 54.809C-101.116 54.8098 -101.116 54.8105 -101.116 54.8112C-101.116 54.812 -101.116 54.8127 -101.116 54.8134C-101.116 54.8142 -101.116 54.8149 -101.116 54.8156C-101.116 54.8164 -101.116 54.8171 -101.116 54.8178C-101.116 54.8186 -101.116 54.8193 -101.116 54.82C-101.116 54.8208 -101.116 54.8215 -101.116 54.8222C-101.116 54.823 -101.116 54.8237 -101.116 54.8244C-101.116 54.8252 -101.116 54.8259 -101.116 54.8266C-101.116 54.8274 -101.116 54.8281 -101.116 54.8288C-101.116 54.8295 -101.116 54.8303 -101.116 54.831C-101.116 54.8317 -101.116 54.8325 -101.116 54.8332C-101.116 54.8339 -101.116 54.8346 -101.116 54.8354C-101.116 54.8361 -101.116 54.8368 -101.116 54.8376C-101.116 54.8383 -101.116 54.839 -101.116 54.8397C-101.116 54.8405 -101.116 54.8412 -101.116 54.8419C-101.116 54.8426 -101.116 54.8434 -101.116 54.8441C-101.116 54.8448 -101.116 54.8455 -101.116 54.8463C-101.116 54.847 -101.116 54.8477 -101.116 54.8484C-101.116 54.8492 -101.116 54.8499 -101.116 54.8506C-101.116 54.8513 -101.116 54.8521 -101.116 54.8528C-101.116 54.8535 -101.116 54.8542 -101.116 54.8549C-101.116 54.8557 -101.116 54.8564 -101.116 54.8571C-101.116 54.8578 -101.116 54.8586 -101.116 54.8593C-101.116 54.86 -101.116 54.8607 -101.116 54.8614C-101.116 54.8622 -101.116 54.8629 -101.116 54.8636C-101.116 54.8643 -101.116 54.865 -101.116 54.8658C-101.116 54.8665 -101.116 54.8672 -101.116 54.8679C-101.116 54.8686 -101.116 54.8693 -101.116 54.8701C-101.116 54.8708 -101.116 54.8715 -101.116 54.8722C-101.116 54.8729 -101.116 54.8736 -101.116 54.8744C-101.116 54.8751 -101.116 54.8758 -101.116 54.8765C-101.116 54.8772 -101.116 54.8779 -101.116 54.8787C-101.116 54.8794 -101.116 54.8801 -101.116 54.8808C-101.116 54.8815 -101.116 54.8822 -101.116 54.8829C-101.116 54.8837 -101.116 54.8844 -101.116 54.8851C-101.116 54.8858 -101.116 54.8865 -101.116 54.8872C-101.116 54.8879 -101.116 54.8886 -101.116 54.8894C-101.116 54.8901 -101.116 54.8908 -101.116 54.8915C-101.116 54.8922 -101.116 54.8929 -101.116 54.8936C-101.116 54.8943 -101.116 54.895 -101.116 54.8957C-101.116 54.8965 -101.116 54.8972 -101.116 54.8979C-101.116 54.8986 -101.116 54.8993 -101.116 54.9C-101.116 54.9007 -101.116 54.9014 -101.116 54.9021C-101.116 54.9028 -101.116 54.9035 -101.116 54.9042C-101.116 54.905 -101.116 54.9057 -101.116 54.9064C-101.116 54.9071 -101.116 54.9078 -101.116 54.9085C-101.116 54.9092 -101.116 54.9099 -101.116 54.9106C-101.116 54.9113 -101.116 54.912 -101.116 54.9127C-101.116 54.9134 -101.116 54.9141 -101.116 54.9148C-101.116 54.9155 -101.116 54.9162 -101.116 54.9169C-101.116 54.9176 -101.116 54.9183 -101.116 54.919C-101.116 54.9197 -101.116 54.9205 -101.116 54.9212C-101.116 54.9219 -101.116 54.9226 -101.116 54.9233C-101.116 54.924 -101.116 54.9247 -101.116 54.9254C-101.116 54.9261 -101.116 54.9268 -101.116 54.9275C-101.116 54.9282 -101.116 54.9289 -101.116 54.9296C-101.116 54.9303 -101.116 54.931 -101.116 54.9317C-101.116 54.9324 -101.116 54.9331 -101.116 54.9338C-101.116 54.9344 -101.116 54.9351 -101.116 54.9358C-101.116 54.9365 -101.116 54.9372 -101.116 54.9379C-101.116 54.9386 -101.116 54.9393 -101.116 54.94C-101.116 54.9407 -101.116 54.9414 -101.116 54.9421C-101.116 54.9428 -101.116 54.9435 -101.116 54.9442C-101.116 54.9449 -101.116 54.9456 -101.116 54.9463C-101.116 54.947 -101.116 54.9477 -101.116 54.9484C-101.116 54.9491 -101.116 54.9497 -101.116 54.9504C-101.116 54.9511 -101.116 54.9518 -101.116 54.9525C-101.116 54.9532 -101.116 54.9539 -101.116 54.9546C-101.116 54.9553 -101.116 54.956 -101.116 54.9567C-101.116 54.9574 -101.116 54.958 -101.116 54.9587C-101.116 54.9594 -101.116 54.9601 -101.116 54.9608C-101.116 54.9615 -101.116 54.9622 -101.116 54.9629C-101.116 54.9636 -101.116 54.9642 -101.116 54.9649C-101.116 54.9656 -101.116 54.9663 -101.116 54.967C-101.116 54.9677 -101.116 54.9684 -101.116 54.9691C-101.116 54.9697 -101.116 54.9704 -101.116 54.9711C-101.116 54.9718 -101.116 54.9725 -101.116 54.9732C-101.116 54.9739 -101.116 54.9745 -101.116 54.9752C-101.116 54.9759 -101.116 54.9766 -101.116 54.9773C-101.116 54.978 -101.116 54.9787 -101.116 54.9793C-101.116 54.98 -101.116 54.9807 -101.116 54.9814C-101.116 54.9821 -101.116 54.9828 -101.116 54.9834C-101.116 54.9841 -101.116 54.9848 -101.116 54.9855C-101.116 54.9862 -101.116 54.9868 -101.116 54.9875C-101.116 54.9882 -101.116 54.9889 -101.116 54.9896C-101.116 54.9902 -101.116 54.9909 -101.116 54.9916C-101.116 54.9923 -101.116 54.993 -101.116 54.9936C-101.116 54.9943 -101.116 54.995 -101.116 54.9957C-101.116 54.9964 -101.116 54.997 -101.116 54.9977C-101.116 54.9984 -101.116 54.9991 -101.116 54.9998C-101.116 55.0004 -101.116 55.0011 -101.116 55.0018C-101.116 55.0025 -101.116 55.0031 -101.116 55.0038C-101.116 55.0045 -101.116 55.0052 -101.116 55.0058C-101.116 55.0065 -101.116 55.0072 -101.116 55.0079C-101.116 55.0085 -101.116 55.0092 -101.116 55.0099C-101.116 55.0106 -101.116 55.0112 -101.116 55.0119C-101.116 55.0126 -101.116 55.0132 -101.116 55.0139C-101.116 55.0146 -101.116 55.0153 -101.116 55.0159C-101.116 55.0166 -101.116 55.0173 -101.116 55.018C-101.116 55.0186 -101.116 55.0193 -101.116 55.02C-101.116 55.0206 -101.116 55.0213 -101.116 55.022C-101.116 55.0226 -101.116 55.0233 -101.116 55.024C-101.116 55.0247 -101.116 55.0253 -101.116 55.026C-101.116 55.0267 -101.116 55.0273 -101.116 55.028C-101.116 55.0287 -101.116 55.0293 -101.116 55.03C-101.116 55.0307 -101.116 55.0313 -101.116 55.032C-101.116 55.0327 -101.116 55.0333 -101.116 55.034C-101.116 55.0347 -101.116 55.0353 -101.116 55.036C-101.116 55.0367 -101.116 55.0373 -101.116 55.038C-101.116 55.0387 -101.116 55.0393 -101.116 55.04C-101.116 55.0406 -101.116 55.0413 -101.116 55.042C-101.116 55.0426 -101.116 55.0433 -101.116 55.044C-101.116 55.0446 -101.116 55.0453 -101.116 55.046C-101.116 55.0466 -101.116 55.0473 -101.116 55.0479C-101.116 55.0486 -101.116 55.0493 -101.116 55.0499C-101.116 55.0506 -101.116 55.0512 -101.116 55.0519C-101.116 55.0526 -101.116 55.0532 -101.116 55.0539C-101.116 55.0545 -101.116 55.0552 -101.116 55.0559C-101.116 55.0565 -101.116 55.0572 -101.116 55.0578C-101.116 55.0585 -101.116 55.0592 -101.116 55.0598C-101.116 55.0605 -101.116 55.0611 -101.116 55.0618C-101.116 55.0624 -101.116 55.0631 -101.116 55.0638C-101.116 55.0644 -101.116 55.0651 -101.116 55.0657C-101.116 55.0664 -101.116 55.067 -101.116 55.0677C-101.116 55.0683 -101.116 55.069 -101.116 55.0696C-101.116 55.0703 -101.116 55.071 -101.116 55.0716C-101.116 55.0723 -101.116 55.0729 -101.116 55.0736C-101.116 55.0742 -101.116 55.0749 -101.116 55.0755C-101.116 55.0762 -101.116 55.0768 -101.116 55.0775C-101.116 55.0781 -101.116 55.0788 -101.116 55.0794C-101.116 55.0801 -101.116 55.0807 -101.116 55.0814C-101.116 55.082 -101.116 55.0827 -101.116 55.0833C-101.116 55.084 -101.116 55.0846 -101.116 55.0853C-101.116 55.0859 -101.116 55.0866 -101.116 55.0872C-101.116 55.0879 -101.116 55.0885 -101.116 55.0892C-101.116 55.0898 -101.116 55.0905 -101.116 55.0911C-101.116 55.0918 -101.116 55.0924 -101.116 55.0931C-101.116 55.0937 -101.116 55.0944 -101.116 55.095C-101.116 55.0956 -101.116 55.0963 -101.116 55.0969C-101.116 55.0976 -101.116 55.0982 -101.116 55.0989C-101.116 55.0995 -101.116 55.1002 -101.116 55.1008C-101.116 55.1014 -101.116 55.1021 -101.116 55.1027C-101.116 55.1034 -101.116 55.104 -101.116 55.1047C-101.116 55.1053 -101.116 55.1059 -101.116 55.1066C-101.116 55.1072 -101.116 55.1079 -101.116 55.1085C-101.116 55.1092 -101.116 55.1098 -101.116 55.1104C-101.116 55.1111 -101.116 55.1117 -101.116 55.1124C-101.116 55.113 -101.116 55.1136 -101.116 55.1143C-101.116 55.1149 -101.116 55.1156 -101.116 55.1162C-101.116 55.1168 -101.116 55.1175 -101.116 55.1181C-101.116 55.1187 -101.116 55.1194 -101.116 55.12C-101.116 55.1207 -101.116 55.1213 -101.116 55.1219C-101.116 55.1226 -101.116 55.1232 -101.116 55.1238C-101.116 55.1245 -101.116 55.1251 -101.116 55.1258C-101.116 55.1264 -101.116 55.127 -101.116 55.1277C-101.116 55.1283 -101.116 55.1289 -101.116 55.1296C-101.116 55.1302 -101.116 55.1308 -101.116 55.1315C-101.116 55.1321 -101.116 55.1327 -101.116 55.1334C-101.116 55.134 -101.116 55.1346 -101.116 55.1353C-101.116 55.1359 -101.116 55.1365 -101.116 55.1372C-101.116 55.1378 -101.116 55.1384 -101.116 55.139C-101.116 55.1397 -101.116 55.1403 -101.116 55.1409C-101.116 55.1416 -101.116 55.1422 -101.116 55.1428C-101.116 55.1435 -101.116 55.1441 -101.116 55.1447C-101.116 55.1453 -101.116 55.146 -101.116 55.1466C-101.116 55.1472 -101.116 55.1479 -101.116 55.1485C-101.116 55.1491 -101.116 55.1497 -101.116 55.1504C-101.116 55.151 -101.116 55.1516 -101.116 55.1522C-101.116 55.1529 -101.116 55.1535 -101.116 55.1541C-101.116 55.1547 -101.116 55.1554 -101.116 55.156C-101.116 55.1566 -101.116 55.1572 -101.116 55.1579C-101.116 55.1585 -101.116 55.1591 -101.116 55.1597C-101.116 55.1604 -101.116 55.161 -101.116 55.1616C-101.116 55.1622 -101.116 55.1629 -101.116 55.1635C-101.116 55.1641 -101.116 55.1647 -101.116 55.1654C-101.116 55.166 -101.116 55.1666 -101.116 55.1672C-101.116 55.1678 -101.116 55.1685 -101.116 55.1691C-101.116 55.1697 -101.116 55.1703 -101.116 55.1709C-101.116 55.1716 -101.116 55.1722 -101.116 55.1728C-101.116 55.1734 -101.116 55.174 -101.116 55.1747C-101.116 55.1753 -101.116 55.1759 -101.116 55.1765C-101.116 55.1771 -101.116 55.1777 -101.116 55.1784C-101.116 55.179 -101.116 55.1796 -101.116 55.1802C-101.116 55.1808 -101.116 55.1814 -101.116 55.1821C-101.116 55.1827 -101.116 55.1833 -101.116 55.1839C-101.116 55.1845 -101.116 55.1851 -101.116 55.1858C-101.116 55.1864 -101.116 55.187 -101.116 55.1876C-101.116 55.1882 -101.116 55.1888 -101.116 55.1894C-101.116 55.19 -101.116 55.1907 -101.116 55.1913C-101.116 55.1919 -101.116 55.1925 -101.116 55.1931C-101.116 55.1937 -101.116 55.1943 -101.116 55.1949C-101.116 55.1956 -101.116 55.1962 -101.116 55.1968C-101.116 55.1974 -101.116 55.198 -101.116 55.1986C-101.116 55.1992 -101.116 55.1998 -101.116 55.2004C-101.116 55.201 -101.116 55.2017 -101.116 55.2023C-101.116 55.2029 -101.116 55.2035 -101.116 55.2041C-101.116 55.2047 -101.116 55.2053 -101.116 55.2059C-101.116 55.2065 -101.116 55.2071 -101.116 55.2077C-101.116 55.2083 -101.116 55.2089 -101.116 55.2096C-101.116 55.2102 -101.116 55.2108 -101.116 55.2114C-101.116 55.212 -101.116 55.2126 -101.116 55.2132C-101.116 55.2138 -101.116 55.2144 -101.116 55.215C-101.116 55.2156 -101.116 55.2162 -101.116 55.2168C-101.116 55.2174 -101.116 55.218 -101.116 55.2186C-101.116 55.2192 -101.116 55.2198 -101.116 55.2204C-101.116 55.221 -101.116 55.2216 -101.116 55.2222C-101.116 55.2228 -101.116 55.2234 -101.116 55.224C-101.116 55.2246 -101.116 55.2252 -101.116 55.2258C-101.116 55.2264 -101.116 55.227 -101.116 55.2276C-101.116 55.2282 -101.116 55.2288 -101.116 55.2294C-101.116 55.23 -101.116 55.2306 -101.116 55.2312C-101.116 55.2318 -101.116 55.2324 -101.116 55.233C-101.116 55.2336 -101.116 55.2342 -101.116 55.2348C-101.116 55.2354 -101.116 55.236 -101.116 55.2366C-101.116 55.2372 -101.116 55.2378 -101.116 55.2384C-101.116 55.239 -101.116 55.2396 -101.116 55.2402C-101.116 55.2408 -101.116 55.2414 -101.116 55.242C-101.116 55.2426 -101.116 55.2432 -101.116 55.2438C-101.116 55.2443 -101.116 55.2449 -101.116 55.2455C-101.116 55.2461 -101.116 55.2467 -101.116 55.2473C-101.116 55.2479 -101.116 55.2485 -101.116 55.2491C-101.116 55.2497 -101.116 55.2503 -101.116 55.2509C-101.116 55.2515 -101.116 55.252 -101.116 55.2526C-101.116 55.2532 -101.116 55.2538 -101.116 55.2544C-101.116 55.255 -101.116 55.2556 -101.116 55.2562C-101.116 55.2568 -101.116 55.2573 -101.116 55.2579C-101.116 55.2585 -101.116 55.2591 -101.116 55.2597C-101.116 55.2603 -101.116 55.2609 -101.116 55.2615C-101.116 55.2621 -101.116 55.2626 -101.116 55.2632C-101.116 55.2638 -101.116 55.2644 -101.116 55.265C-101.116 55.2656 -101.116 55.2662 -101.116 55.2667C-101.116 55.2673 -101.116 55.2679 -101.116 55.2685C-101.116 55.2691 -101.116 55.2697 -101.116 55.2702C-101.116 55.2708 -101.116 55.2714 -101.116 55.272C-101.116 55.2726 -101.116 55.2732 -101.116 55.2737C-101.116 55.2743 -101.116 55.2749 -101.116 55.2755C-101.116 55.2761 -101.116 55.2767 -101.116 55.2772C-101.116 55.2778 -101.116 55.2784 -101.116 55.279C-101.116 55.2796 -101.116 55.2801 -101.116 55.2807C-101.116 55.2813 -101.116 55.2819 -101.116 55.2825C-101.116 55.283 -101.116 55.2836 -101.116 55.2842C-101.116 55.2848 -101.116 55.2854 -101.116 55.2859C-101.116 55.2865 -101.116 55.2871 -101.116 55.2877C-101.116 55.2882 -101.116 55.2888 -101.116 55.2894C-101.116 55.29 -101.116 55.2906 -101.116 55.2911C-101.116 55.2917 -101.116 55.2923 -101.116 55.2929C-101.116 55.2934 -101.116 55.294 -101.116 55.2946C-101.116 55.2952 -101.116 55.2957 -101.116 55.2963C-101.116 55.2969 -101.116 55.2975 -101.116 55.298C-101.116 55.2986 -101.116 55.2992 -101.116 55.2998C-101.116 55.3003 -101.116 55.3009 -101.116 55.3015C-101.116 55.302 -101.116 55.3026 -101.116 55.3032C-101.116 55.3038 -101.116 55.3043 -101.116 55.3049C-101.116 55.3055 -101.116 55.306 -101.116 55.3066C-101.116 55.3072 -101.116 55.3077 -101.116 55.3083C-101.116 55.3089 -101.116 55.3095 -101.116 55.31C-101.116 55.3106 -101.116 55.3112 -101.116 55.3117C-101.116 55.3123 -101.116 55.3129 -101.116 55.3134C-101.116 55.314 -101.116 55.3146 -101.116 55.3151C-101.116 55.3157 -101.116 55.3163 -101.116 55.3168C-101.116 55.3174 -101.116 55.318 -101.116 55.3185C-101.116 55.3191 -101.116 55.3197 -101.116 55.3202C-101.116 55.3208 -101.116 55.3214 -101.116 55.3219C-101.116 55.3225 -101.116 55.3231 -101.116 55.3236C-101.116 55.3242 -101.116 55.3247 -101.116 55.3253C-101.116 55.3259 -101.116 55.3264 -101.116 55.327C-101.116 55.3276 -101.116 55.3281 -101.116 55.3287C-101.116 55.3292 -101.116 55.3298 -101.116 55.3304C-101.116 55.3309 -101.116 55.3315 -101.116 55.3321C-101.116 55.3326 -101.116 55.3332 -101.116 55.3337C-101.116 55.3343 -101.116 55.3349 -101.116 55.3354C-101.116 55.336 -101.116 55.3365 -101.116 55.3371C-101.116 55.3376 -101.116 55.3382 -101.116 55.3388C-101.116 55.3393 -101.116 55.3399 -101.116 55.3404C-101.116 55.341 -101.116 55.3416 -101.116 55.3421C-101.116 55.3427 -101.116 55.3432 -101.116 55.3438C-101.116 55.3443 -101.116 55.3449 -101.116 55.3454C-101.116 55.346 -101.116 55.3466 -101.116 55.3471C-101.116 55.3477 -101.116 55.3482 -101.116 55.3488C-101.116 55.3493 -101.116 55.3499 -101.116 55.3504C-101.116 55.351 -101.116 55.3515 -101.116 55.3521C-101.116 55.3526 -101.116 55.3532 -101.116 55.3538C-101.116 55.3543 -101.116 55.3549 -101.116 55.3554C-101.116 55.356 -101.116 55.3565 -101.116 55.3571C-101.116 55.3576 -101.116 55.3582 -101.116 55.3587C-101.116 55.3593 -101.116 55.3598 -101.116 55.3604C-101.116 55.3609 -101.116 55.3615 -101.116 55.362C-101.116 55.3626 -101.116 55.3631 -101.116 55.3637C-101.116 55.3642 -101.116 55.3647 -101.116 55.3653C-101.116 55.3658 -101.116 55.3664 -101.116 55.3669C-101.116 55.3675 -101.116 55.368 -101.116 55.3686C-101.116 55.3691 -101.116 55.3697 -101.116 55.3702C-101.116 55.3708 -101.116 55.3713 -101.116 55.3719C-101.116 55.3724 -101.116 55.3729 -101.116 55.3735C-101.116 55.374 -101.116 55.3746 -101.116 55.3751C-101.116 55.3757 -101.116 55.3762 -101.116 55.3767C-101.116 55.3773 -101.116 55.3778 -101.116 55.3784C-101.116 55.3789 -101.116 55.3795 -101.116 55.38C-101.116 55.3805 -101.116 55.3811 -101.116 55.3816C-101.116 55.3822 -101.116 55.3827 -101.116 55.3832C-101.116 55.3838 -101.116 55.3843 -101.116 55.3849C-101.116 55.3854 -101.116 55.3859 -101.116 55.3865C-101.116 55.387 -101.116 55.3876 -101.116 55.3881C-101.116 55.3886 -101.116 55.3892 -101.116 55.3897C-101.116 55.3903 -101.116 55.3908 -101.116 55.3913C-101.116 55.3919 -101.116 55.3924 -101.116 55.3929C-101.116 55.3935 -101.116 55.394 -101.116 55.3945C-101.116 55.3951 -101.116 55.3956 -101.116 55.3962C-101.116 55.3967 -101.116 55.3972 -101.116 55.3978C-101.116 55.3983 -101.116 55.3988 -101.116 55.3994C-101.116 55.3999 -101.116 55.4004 -101.116 55.401C-101.116 55.4015 -101.116 55.402 -101.116 55.4026C-101.116 55.4031 -101.116 55.4036 -101.116 55.4042C-101.116 55.4047 -101.116 55.4052 -101.116 55.4058C-101.116 55.4063 -101.116 55.4068 -101.116 55.4073C-101.116 55.4079 -101.116 55.4084 -101.116 55.4089C-101.116 55.4095 -101.116 55.41 -101.116 55.4105C-101.116 55.4111 -101.116 55.4116 -101.116 55.4121C-101.116 55.4126 -101.116 55.4132 -101.116 55.4137C-101.116 55.4142 -101.116 55.4148 -101.116 55.4153C-101.116 55.4158 -101.116 55.4163 -101.116 55.4169C-101.116 55.4174 -101.116 55.4179 -101.116 55.4184C-101.116 55.419 -101.116 55.4195 -101.116 55.42C-101.116 55.4205 -101.116 55.4211 -101.116 55.4216C-101.116 55.4221 -101.116 55.4226 -101.116 55.4232C-101.116 55.4237 -101.116 55.4242 -101.116 55.4247C-101.116 55.4253 -101.116 55.4258 -101.116 55.4263C-101.116 55.4268 -101.116 55.4273 -101.116 55.4279C-101.116 55.4284 -101.116 55.4289 -101.116 55.4294C-101.116 55.43 -101.116 55.4305 -101.116 55.431C-101.116 55.4315 -101.116 55.432 -101.116 55.4326C-101.116 55.4331 -101.116 55.4336 -101.116 55.4341C-101.116 55.4346 -101.116 55.4352 -101.116 55.4357C-101.116 55.4362 -101.116 55.4367 -101.116 55.4372C-101.116 55.4378 -101.116 55.4383 -101.116 55.4388C-101.116 55.4393 -101.116 55.4398 -101.116 55.4403C-101.116 55.4409 -101.116 55.4414 -101.116 55.4419C-101.116 55.4424 -101.116 55.4429 -101.116 55.4434C-101.116 55.444 -101.116 55.4445 -101.116 55.445C-101.116 55.4455 -101.116 55.446 -101.116 55.4465C-101.116 55.447 -101.116 55.4476 -101.116 55.4481C-101.116 55.4486 -101.116 55.4491 -101.116 55.4496C-101.116 55.4501 -101.116 55.4506 -101.116 55.4511C-101.116 55.4517 -101.116 55.4522 -101.116 55.4527C-101.116 55.4532 -101.116 55.4537 -101.116 55.4542C-101.116 55.4547 -101.116 55.4552 -101.116 55.4558C-101.116 55.4563 -101.116 55.4568 -101.116 55.4573C-101.116 55.4578 -101.116 55.4583 -101.116 55.4588C-101.116 55.4593 -101.116 55.4598 -101.116 55.4603C-101.116 55.4608 -101.116 55.4614 -101.116 55.4619C-101.116 55.4624 -101.116 55.4629 -101.116 55.4634C-101.116 55.4639 -101.116 55.4644 -101.116 55.4649C-101.116 55.4654 -101.116 55.4659 -101.116 55.4664C-101.116 55.4669 -101.116 55.4674 -101.116 55.4679C-101.116 55.4684 -101.116 55.4689 -101.116 55.4695C-101.116 55.47 -101.116 55.4705 -101.116 55.471C-101.116 55.4715 -101.116 55.472 -101.116 55.4725C-101.116 55.473 -101.116 55.4735 -101.116 55.474C-101.116 55.4745 -101.116 55.475 -101.116 55.4755C-101.116 55.476 -101.116 55.4765 -101.116 55.477C-101.116 55.4775 -101.116 55.478 -101.116 55.4785C-101.116 55.479 -101.116 55.4795 -101.116 55.48H198.884C198.884 55.4795 198.884 55.479 198.884 55.4785C198.884 55.478 198.884 55.4775 198.884 55.477C198.884 55.4765 198.884 55.476 198.884 55.4755C198.884 55.475 198.884 55.4745 198.884 55.474C198.884 55.4735 198.884 55.473 198.884 55.4725C198.884 55.472 198.884 55.4715 198.884 55.471C198.884 55.4705 198.884 55.47 198.884 55.4695C198.884 55.4689 198.884 55.4684 198.884 55.4679C198.884 55.4674 198.884 55.4669 198.884 55.4664C198.884 55.4659 198.884 55.4654 198.884 55.4649C198.884 55.4644 198.884 55.4639 198.884 55.4634C198.884 55.4629 198.884 55.4624 198.884 55.4619C198.884 55.4614 198.884 55.4608 198.884 55.4603C198.884 55.4598 198.884 55.4593 198.884 55.4588C198.884 55.4583 198.884 55.4578 198.884 55.4573C198.884 55.4568 198.884 55.4563 198.884 55.4558C198.884 55.4552 198.884 55.4547 198.884 55.4542C198.884 55.4537 198.884 55.4532 198.884 55.4527C198.884 55.4522 198.884 55.4517 198.884 55.4511C198.884 55.4506 198.884 55.4501 198.884 55.4496C198.884 55.4491 198.884 55.4486 198.884 55.4481C198.884 55.4476 198.884 55.447 198.884 55.4465C198.884 55.446 198.884 55.4455 198.884 55.445C198.884 55.4445 198.884 55.444 198.884 55.4434C198.884 55.4429 198.884 55.4424 198.884 55.4419C198.884 55.4414 198.884 55.4409 198.884 55.4403C198.884 55.4398 198.884 55.4393 198.884 55.4388C198.884 55.4383 198.884 55.4378 198.884 55.4372C198.884 55.4367 198.884 55.4362 198.884 55.4357C198.884 55.4352 198.884 55.4346 198.884 55.4341C198.884 55.4336 198.884 55.4331 198.884 55.4326C198.884 55.432 198.884 55.4315 198.884 55.431C198.884 55.4305 198.884 55.43 198.884 55.4294C198.884 55.4289 198.884 55.4284 198.884 55.4279C198.884 55.4273 198.884 55.4268 198.884 55.4263C198.884 55.4258 198.884 55.4253 198.884 55.4247C198.884 55.4242 198.884 55.4237 198.884 55.4232C198.884 55.4226 198.884 55.4221 198.884 55.4216C198.884 55.4211 198.884 55.4205 198.884 55.42C198.884 55.4195 198.884 55.419 198.884 55.4184C198.884 55.4179 198.884 55.4174 198.884 55.4169C198.884 55.4163 198.884 55.4158 198.884 55.4153C198.884 55.4148 198.884 55.4142 198.884 55.4137C198.884 55.4132 198.884 55.4126 198.884 55.4121C198.884 55.4116 198.884 55.4111 198.884 55.4105C198.884 55.41 198.884 55.4095 198.884 55.4089C198.884 55.4084 198.884 55.4079 198.884 55.4073C198.884 55.4068 198.884 55.4063 198.884 55.4058C198.884 55.4052 198.884 55.4047 198.884 55.4042C198.884 55.4036 198.884 55.4031 198.884 55.4026C198.884 55.402 198.884 55.4015 198.884 55.401C198.884 55.4004 198.884 55.3999 198.884 55.3994C198.884 55.3988 198.884 55.3983 198.884 55.3978C198.884 55.3972 198.884 55.3967 198.884 55.3962C198.884 55.3956 198.884 55.3951 198.884 55.3945C198.884 55.394 198.884 55.3935 198.884 55.3929C198.884 55.3924 198.884 55.3919 198.884 55.3913C198.884 55.3908 198.884 55.3903 198.884 55.3897C198.884 55.3892 198.884 55.3886 198.884 55.3881C198.884 55.3876 198.884 55.387 198.884 55.3865C198.884 55.3859 198.884 55.3854 198.884 55.3849C198.884 55.3843 198.884 55.3838 198.884 55.3832C198.884 55.3827 198.884 55.3822 198.884 55.3816C198.884 55.3811 198.884 55.3805 198.884 55.38C198.884 55.3795 198.884 55.3789 198.884 55.3784C198.884 55.3778 198.884 55.3773 198.884 55.3767C198.884 55.3762 198.884 55.3757 198.884 55.3751C198.884 55.3746 198.884 55.374 198.884 55.3735C198.884 55.3729 198.884 55.3724 198.884 55.3719C198.884 55.3713 198.884 55.3708 198.884 55.3702C198.884 55.3697 198.884 55.3691 198.884 55.3686C198.884 55.368 198.884 55.3675 198.884 55.3669C198.884 55.3664 198.884 55.3658 198.884 55.3653C198.884 55.3647 198.884 55.3642 198.884 55.3637C198.884 55.3631 198.884 55.3626 198.884 55.362C198.884 55.3615 198.884 55.3609 198.884 55.3604C198.884 55.3598 198.884 55.3593 198.884 55.3587C198.884 55.3582 198.884 55.3576 198.884 55.3571C198.884 55.3565 198.884 55.356 198.884 55.3554C198.884 55.3549 198.884 55.3543 198.884 55.3538C198.884 55.3532 198.884 55.3526 198.884 55.3521C198.884 55.3515 198.884 55.351 198.884 55.3504C198.884 55.3499 198.884 55.3493 198.884 55.3488C198.884 55.3482 198.884 55.3477 198.884 55.3471C198.884 55.3466 198.884 55.346 198.884 55.3454C198.884 55.3449 198.884 55.3443 198.884 55.3438C198.884 55.3432 198.884 55.3427 198.884 55.3421C198.884 55.3416 198.884 55.341 198.884 55.3404C198.884 55.3399 198.884 55.3393 198.884 55.3388C198.884 55.3382 198.884 55.3376 198.884 55.3371C198.884 55.3365 198.884 55.336 198.884 55.3354C198.884 55.3349 198.884 55.3343 198.884 55.3337C198.884 55.3332 198.884 55.3326 198.884 55.3321C198.884 55.3315 198.884 55.3309 198.884 55.3304C198.884 55.3298 198.884 55.3292 198.884 55.3287C198.884 55.3281 198.884 55.3276 198.884 55.327C198.884 55.3264 198.884 55.3259 198.884 55.3253C198.884 55.3247 198.884 55.3242 198.884 55.3236C198.884 55.3231 198.884 55.3225 198.884 55.3219C198.884 55.3214 198.884 55.3208 198.884 55.3202C198.884 55.3197 198.884 55.3191 198.884 55.3185C198.884 55.318 198.884 55.3174 198.884 55.3168C198.884 55.3163 198.884 55.3157 198.884 55.3151C198.884 55.3146 198.884 55.314 198.884 55.3134C198.884 55.3129 198.884 55.3123 198.884 55.3117C198.884 55.3112 198.884 55.3106 198.884 55.31C198.884 55.3095 198.884 55.3089 198.884 55.3083C198.884 55.3077 198.884 55.3072 198.884 55.3066C198.884 55.306 198.884 55.3055 198.884 55.3049C198.884 55.3043 198.884 55.3038 198.884 55.3032C198.884 55.3026 198.884 55.302 198.884 55.3015C198.884 55.3009 198.884 55.3003 198.884 55.2998C198.884 55.2992 198.884 55.2986 198.884 55.298C198.884 55.2975 198.884 55.2969 198.884 55.2963C198.884 55.2957 198.884 55.2952 198.884 55.2946C198.884 55.294 198.884 55.2934 198.884 55.2929C198.884 55.2923 198.884 55.2917 198.884 55.2911C198.884 55.2906 198.884 55.29 198.884 55.2894C198.884 55.2888 198.884 55.2882 198.884 55.2877C198.884 55.2871 198.884 55.2865 198.884 55.2859C198.884 55.2854 198.884 55.2848 198.884 55.2842C198.884 55.2836 198.884 55.283 198.884 55.2825C198.884 55.2819 198.884 55.2813 198.884 55.2807C198.884 55.2801 198.884 55.2796 198.884 55.279C198.884 55.2784 198.884 55.2778 198.884 55.2772C198.884 55.2767 198.884 55.2761 198.884 55.2755C198.884 55.2749 198.884 55.2743 198.884 55.2737C198.884 55.2732 198.884 55.2726 198.884 55.272C198.884 55.2714 198.884 55.2708 198.884 55.2702C198.884 55.2697 198.884 55.2691 198.884 55.2685C198.884 55.2679 198.884 55.2673 198.884 55.2667C198.884 55.2662 198.884 55.2656 198.884 55.265C198.884 55.2644 198.884 55.2638 198.884 55.2632C198.884 55.2626 198.884 55.2621 198.884 55.2615C198.884 55.2609 198.884 55.2603 198.884 55.2597C198.884 55.2591 198.884 55.2585 198.884 55.2579C198.884 55.2573 198.884 55.2568 198.884 55.2562C198.884 55.2556 198.884 55.255 198.884 55.2544C198.884 55.2538 198.884 55.2532 198.884 55.2526C198.884 55.252 198.884 55.2515 198.884 55.2509C198.884 55.2503 198.884 55.2497 198.884 55.2491C198.884 55.2485 198.884 55.2479 198.884 55.2473C198.884 55.2467 198.884 55.2461 198.884 55.2455C198.884 55.2449 198.884 55.2443 198.884 55.2438C198.884 55.2432 198.884 55.2426 198.884 55.242C198.884 55.2414 198.884 55.2408 198.884 55.2402C198.884 55.2396 198.884 55.239 198.884 55.2384C198.884 55.2378 198.884 55.2372 198.884 55.2366C198.884 55.236 198.884 55.2354 198.884 55.2348C198.884 55.2342 198.884 55.2336 198.884 55.233C198.884 55.2324 198.884 55.2318 198.884 55.2312C198.884 55.2306 198.884 55.23 198.884 55.2294C198.884 55.2288 198.884 55.2282 198.884 55.2276C198.884 55.227 198.884 55.2264 198.884 55.2258C198.884 55.2252 198.884 55.2246 198.884 55.224C198.884 55.2234 198.884 55.2228 198.884 55.2222C198.884 55.2216 198.884 55.221 198.884 55.2204C198.884 55.2198 198.884 55.2192 198.884 55.2186C198.884 55.218 198.884 55.2174 198.884 55.2168C198.884 55.2162 198.884 55.2156 198.884 55.215C198.884 55.2144 198.884 55.2138 198.884 55.2132C198.884 55.2126 198.884 55.212 198.884 55.2114C198.884 55.2108 198.884 55.2102 198.884 55.2096C198.884 55.2089 198.884 55.2083 198.884 55.2077C198.884 55.2071 198.884 55.2065 198.884 55.2059C198.884 55.2053 198.884 55.2047 198.884 55.2041C198.884 55.2035 198.884 55.2029 198.884 55.2023C198.884 55.2017 198.884 55.201 198.884 55.2004C198.884 55.1998 198.884 55.1992 198.884 55.1986C198.884 55.198 198.884 55.1974 198.884 55.1968C198.884 55.1962 198.884 55.1956 198.884 55.1949C198.884 55.1943 198.884 55.1937 198.884 55.1931C198.884 55.1925 198.884 55.1919 198.884 55.1913C198.884 55.1907 198.884 55.19 198.884 55.1894C198.884 55.1888 198.884 55.1882 198.884 55.1876C198.884 55.187 198.884 55.1864 198.884 55.1858C198.884 55.1851 198.884 55.1845 198.884 55.1839C198.884 55.1833 198.884 55.1827 198.884 55.1821C198.884 55.1814 198.884 55.1808 198.884 55.1802C198.884 55.1796 198.884 55.179 198.884 55.1784C198.884 55.1777 198.884 55.1771 198.884 55.1765C198.884 55.1759 198.884 55.1753 198.884 55.1747C198.884 55.174 198.884 55.1734 198.884 55.1728C198.884 55.1722 198.884 55.1716 198.884 55.1709C198.884 55.1703 198.884 55.1697 198.884 55.1691C198.884 55.1685 198.884 55.1678 198.884 55.1672C198.884 55.1666 198.884 55.166 198.884 55.1654C198.884 55.1647 198.884 55.1641 198.884 55.1635C198.884 55.1629 198.884 55.1622 198.884 55.1616C198.884 55.161 198.884 55.1604 198.884 55.1597C198.884 55.1591 198.884 55.1585 198.884 55.1579C198.884 55.1572 198.884 55.1566 198.884 55.156C198.884 55.1554 198.884 55.1547 198.884 55.1541C198.884 55.1535 198.884 55.1529 198.884 55.1522C198.884 55.1516 198.884 55.151 198.884 55.1504C198.884 55.1497 198.884 55.1491 198.884 55.1485C198.884 55.1479 198.884 55.1472 198.884 55.1466C198.884 55.146 198.884 55.1453 198.884 55.1447C198.884 55.1441 198.884 55.1435 198.884 55.1428C198.884 55.1422 198.884 55.1416 198.884 55.1409C198.884 55.1403 198.884 55.1397 198.884 55.139C198.884 55.1384 198.884 55.1378 198.884 55.1372C198.884 55.1365 198.884 55.1359 198.884 55.1353C198.884 55.1346 198.884 55.134 198.884 55.1334C198.884 55.1327 198.884 55.1321 198.884 55.1315C198.884 55.1308 198.884 55.1302 198.884 55.1296C198.884 55.1289 198.884 55.1283 198.884 55.1277C198.884 55.127 198.884 55.1264 198.884 55.1258C198.884 55.1251 198.884 55.1245 198.884 55.1238C198.884 55.1232 198.884 55.1226 198.884 55.1219C198.884 55.1213 198.884 55.1207 198.884 55.12C198.884 55.1194 198.884 55.1187 198.884 55.1181C198.884 55.1175 198.884 55.1168 198.884 55.1162C198.884 55.1156 198.884 55.1149 198.884 55.1143C198.884 55.1136 198.884 55.113 198.884 55.1124C198.884 55.1117 198.884 55.1111 198.884 55.1104C198.884 55.1098 198.884 55.1092 198.884 55.1085C198.884 55.1079 198.884 55.1072 198.884 55.1066C198.884 55.1059 198.884 55.1053 198.884 55.1047C198.884 55.104 198.884 55.1034 198.884 55.1027C198.884 55.1021 198.884 55.1014 198.884 55.1008C198.884 55.1002 198.884 55.0995 198.884 55.0989C198.884 55.0982 198.884 55.0976 198.884 55.0969C198.884 55.0963 198.884 55.0956 198.884 55.095C198.884 55.0944 198.884 55.0937 198.884 55.0931C198.884 55.0924 198.884 55.0918 198.884 55.0911C198.884 55.0905 198.884 55.0898 198.884 55.0892C198.884 55.0885 198.884 55.0879 198.884 55.0872C198.884 55.0866 198.884 55.0859 198.884 55.0853C198.884 55.0846 198.884 55.084 198.884 55.0833C198.884 55.0827 198.884 55.082 198.884 55.0814C198.884 55.0807 198.884 55.0801 198.884 55.0794C198.884 55.0788 198.884 55.0781 198.884 55.0775C198.884 55.0768 198.884 55.0762 198.884 55.0755C198.884 55.0749 198.884 55.0742 198.884 55.0736C198.884 55.0729 198.884 55.0723 198.884 55.0716C198.884 55.071 198.884 55.0703 198.884 55.0696C198.884 55.069 198.884 55.0683 198.884 55.0677C198.884 55.067 198.884 55.0664 198.884 55.0657C198.884 55.0651 198.884 55.0644 198.884 55.0638C198.884 55.0631 198.884 55.0624 198.884 55.0618C198.884 55.0611 198.884 55.0605 198.884 55.0598C198.884 55.0592 198.884 55.0585 198.884 55.0578C198.884 55.0572 198.884 55.0565 198.884 55.0559C198.884 55.0552 198.884 55.0545 198.884 55.0539C198.884 55.0532 198.884 55.0526 198.884 55.0519C198.884 55.0512 198.884 55.0506 198.884 55.0499C198.884 55.0493 198.884 55.0486 198.884 55.0479C198.884 55.0473 198.884 55.0466 198.884 55.046C198.884 55.0453 198.884 55.0446 198.884 55.044C198.884 55.0433 198.884 55.0426 198.884 55.042C198.884 55.0413 198.884 55.0406 198.884 55.04C198.884 55.0393 198.884 55.0387 198.884 55.038C198.884 55.0373 198.884 55.0367 198.884 55.036C198.884 55.0353 198.884 55.0347 198.884 55.034C198.884 55.0333 198.884 55.0327 198.884 55.032C198.884 55.0313 198.884 55.0307 198.884 55.03C198.884 55.0293 198.884 55.0287 198.884 55.028C198.884 55.0273 198.884 55.0267 198.884 55.026C198.884 55.0253 198.884 55.0247 198.884 55.024C198.884 55.0233 198.884 55.0226 198.884 55.022C198.884 55.0213 198.884 55.0206 198.884 55.02C198.884 55.0193 198.884 55.0186 198.884 55.018C198.884 55.0173 198.884 55.0166 198.884 55.0159C198.884 55.0153 198.884 55.0146 198.884 55.0139C198.884 55.0132 198.884 55.0126 198.884 55.0119C198.884 55.0112 198.884 55.0106 198.884 55.0099C198.884 55.0092 198.884 55.0085 198.884 55.0079C198.884 55.0072 198.884 55.0065 198.884 55.0058C198.884 55.0052 198.884 55.0045 198.884 55.0038C198.884 55.0031 198.884 55.0025 198.884 55.0018C198.884 55.0011 198.884 55.0004 198.884 54.9998C198.884 54.9991 198.884 54.9984 198.884 54.9977C198.884 54.997 198.884 54.9964 198.884 54.9957C198.884 54.995 198.884 54.9943 198.884 54.9936C198.884 54.993 198.884 54.9923 198.884 54.9916C198.884 54.9909 198.884 54.9902 198.884 54.9896C198.884 54.9889 198.884 54.9882 198.884 54.9875C198.884 54.9868 198.884 54.9862 198.884 54.9855C198.884 54.9848 198.884 54.9841 198.884 54.9834C198.884 54.9828 198.884 54.9821 198.884 54.9814C198.884 54.9807 198.884 54.98 198.884 54.9793C198.884 54.9787 198.884 54.978 198.884 54.9773C198.884 54.9766 198.884 54.9759 198.884 54.9752C198.884 54.9745 198.884 54.9739 198.884 54.9732C198.884 54.9725 198.884 54.9718 198.884 54.9711C198.884 54.9704 198.884 54.9697 198.884 54.9691C198.884 54.9684 198.884 54.9677 198.884 54.967C198.884 54.9663 198.884 54.9656 198.884 54.9649C198.884 54.9642 198.884 54.9636 198.884 54.9629C198.884 54.9622 198.884 54.9615 198.884 54.9608C198.884 54.9601 198.884 54.9594 198.884 54.9587C198.884 54.958 198.884 54.9574 198.884 54.9567C198.884 54.956 198.884 54.9553 198.884 54.9546C198.884 54.9539 198.884 54.9532 198.884 54.9525C198.884 54.9518 198.884 54.9511 198.884 54.9504C198.884 54.9497 198.884 54.9491 198.884 54.9484C198.884 54.9477 198.884 54.947 198.884 54.9463C198.884 54.9456 198.884 54.9449 198.884 54.9442C198.884 54.9435 198.884 54.9428 198.884 54.9421C198.884 54.9414 198.884 54.9407 198.884 54.94C198.884 54.9393 198.884 54.9386 198.884 54.9379C198.884 54.9372 198.884 54.9365 198.884 54.9358C198.884 54.9351 198.884 54.9344 198.884 54.9338C198.884 54.9331 198.884 54.9324 198.884 54.9317C198.884 54.931 198.884 54.9303 198.884 54.9296C198.884 54.9289 198.884 54.9282 198.884 54.9275C198.884 54.9268 198.884 54.9261 198.884 54.9254C198.884 54.9247 198.884 54.924 198.884 54.9233C198.884 54.9226 198.884 54.9219 198.884 54.9212C198.884 54.9205 198.884 54.9197 198.884 54.919C198.884 54.9183 198.884 54.9176 198.884 54.9169C198.884 54.9162 198.884 54.9155 198.884 54.9148C198.884 54.9141 198.884 54.9134 198.884 54.9127C198.884 54.912 198.884 54.9113 198.884 54.9106C198.884 54.9099 198.884 54.9092 198.884 54.9085C198.884 54.9078 198.884 54.9071 198.884 54.9064C198.884 54.9057 198.884 54.905 198.884 54.9042C198.884 54.9035 198.884 54.9028 198.884 54.9021C198.884 54.9014 198.884 54.9007 198.884 54.9C198.884 54.8993 198.884 54.8986 198.884 54.8979C198.884 54.8972 198.884 54.8965 198.884 54.8957C198.884 54.895 198.884 54.8943 198.884 54.8936C198.884 54.8929 198.884 54.8922 198.884 54.8915C198.884 54.8908 198.884 54.8901 198.884 54.8894C198.884 54.8886 198.884 54.8879 198.884 54.8872C198.884 54.8865 198.884 54.8858 198.884 54.8851C198.884 54.8844 198.884 54.8837 198.884 54.8829C198.884 54.8822 198.884 54.8815 198.884 54.8808C198.884 54.8801 198.884 54.8794 198.884 54.8787C198.884 54.8779 198.884 54.8772 198.884 54.8765C198.884 54.8758 198.884 54.8751 198.884 54.8744C198.884 54.8736 198.884 54.8729 198.884 54.8722C198.884 54.8715 198.884 54.8708 198.884 54.8701C198.884 54.8693 198.884 54.8686 198.884 54.8679C198.884 54.8672 198.884 54.8665 198.884 54.8658C198.884 54.865 198.884 54.8643 198.884 54.8636C198.884 54.8629 198.884 54.8622 198.884 54.8614C198.884 54.8607 198.884 54.86 198.884 54.8593C198.884 54.8586 198.884 54.8578 198.884 54.8571C198.884 54.8564 198.884 54.8557 198.884 54.8549C198.884 54.8542 198.884 54.8535 198.884 54.8528C198.884 54.8521 198.884 54.8513 198.884 54.8506C198.884 54.8499 198.884 54.8492 198.884 54.8484C198.884 54.8477 198.884 54.847 198.884 54.8463C198.884 54.8455 198.884 54.8448 198.884 54.8441C198.884 54.8434 198.884 54.8426 198.884 54.8419C198.884 54.8412 198.884 54.8405 198.884 54.8397C198.884 54.839 198.884 54.8383 198.884 54.8376C198.884 54.8368 198.884 54.8361 198.884 54.8354C198.884 54.8346 198.884 54.8339 198.884 54.8332C198.884 54.8325 198.884 54.8317 198.884 54.831C198.884 54.8303 198.884 54.8295 198.884 54.8288C198.884 54.8281 198.884 54.8274 198.884 54.8266C198.884 54.8259 198.884 54.8252 198.884 54.8244C198.884 54.8237 198.884 54.823 198.884 54.8222C198.884 54.8215 198.884 54.8208 198.884 54.82C198.884 54.8193 198.884 54.8186 198.884 54.8178C198.884 54.8171 198.884 54.8164 198.884 54.8156C198.884 54.8149 198.884 54.8142 198.884 54.8134C198.884 54.8127 198.884 54.812 198.884 54.8112C198.884 54.8105 198.884 54.8098 198.884 54.809C198.884 54.8083 198.884 54.8076 198.884 54.8068C198.884 54.8061 198.884 54.8053 198.884 54.8046C198.884 54.8039 198.884 54.8031 198.884 54.8024C198.884 54.8017 198.884 54.8009 198.884 54.8002C198.884 54.7994 198.884 54.7987 198.884 54.798C198.884 54.7972 198.884 54.7965 198.884 54.7958C198.884 54.795 198.884 54.7943 198.884 54.7935C198.884 54.7928 198.884 54.792 198.884 54.7913C198.884 54.7906 198.884 54.7898 198.884 54.7891C198.884 54.7883 198.884 54.7876 198.884 54.7869C198.884 54.7861 198.884 54.7854 198.884 54.7846C198.884 54.7839 198.884 54.7831 198.884 54.7824C198.884 54.7817 198.884 54.7809 198.884 54.7802C198.884 54.7794 198.884 54.7787 198.884 54.7779C198.884 54.7772 198.884 54.7764 198.884 54.7757C198.884 54.775 198.884 54.7742 198.884 54.7735C198.884 54.7727 198.884 54.772 198.884 54.7712C198.884 54.7705 198.884 54.7697 198.884 54.769C198.884 54.7682 198.884 54.7675 198.884 54.7667C198.884 54.766 198.884 54.7652 198.884 54.7645C198.884 54.7637 198.884 54.763 198.884 54.7622C198.884 54.7615 198.884 54.7608 198.884 54.76C198.884 54.7593 198.884 54.7585 198.884 54.7577C198.884 54.757 198.884 54.7562 198.884 54.7555C198.884 54.7547 198.884 54.754 198.884 54.7532C198.884 54.7525 198.884 54.7517 198.884 54.751C198.884 54.7502 198.884 54.7495 198.884 54.7487C198.884 54.748 198.884 54.7472 198.884 54.7465C198.884 54.7457 198.884 54.745 198.884 54.7442C198.884 54.7434 198.884 54.7427 198.884 54.7419C198.884 54.7412 198.884 54.7404 198.884 54.7397C198.884 54.7389 198.884 54.7382 198.884 54.7374C198.884 54.7366 198.884 54.7359 198.884 54.7351C198.884 54.7344 198.884 54.7336 198.884 54.7329C198.884 54.7321 198.884 54.7313 198.884 54.7306C198.884 54.7298 198.884 54.7291 198.884 54.7283C198.884 54.7275 198.884 54.7268 198.884 54.726C198.884 54.7253 198.884 54.7245 198.884 54.7238C198.884 54.723 198.884 54.7222 198.884 54.7215C198.884 54.7207 198.884 54.7199 198.884 54.7192C198.884 54.7184 198.884 54.7177 198.884 54.7169C198.884 54.7161 198.884 54.7154 198.884 54.7146C198.884 54.7138 198.884 54.7131 198.884 54.7123C198.884 54.7116 198.884 54.7108 198.884 54.71C198.884 54.7093 198.884 54.7085 198.884 54.7077C198.884 54.707 198.884 54.7062 198.884 54.7054C198.884 54.7047 198.884 54.7039 198.884 54.7031C198.884 54.7024 198.884 54.7016 198.884 54.7008C198.884 54.7001 198.884 54.6993 198.884 54.6985C198.884 54.6978 198.884 54.697 198.884 54.6962C198.884 54.6955 198.884 54.6947 198.884 54.6939C198.884 54.6932 198.884 54.6924 198.884 54.6916C198.884 54.6909 198.884 54.6901 198.884 54.6893C198.884 54.6885 198.884 54.6878 198.884 54.687C198.884 54.6862 198.884 54.6855 198.884 54.6847C198.884 54.6839 198.884 54.6831 198.884 54.6824C198.884 54.6816 198.884 54.6808 198.884 54.6801C198.884 54.6793 198.884 54.6785 198.884 54.6777C198.884 54.677 198.884 54.6762 198.884 54.6754C198.884 54.6746 198.884 54.6739 198.884 54.6731C198.884 54.6723 198.884 54.6715 198.884 54.6708C198.884 54.67 198.884 54.6692 198.884 54.6684C198.884 54.6677 198.884 54.6669 198.884 54.6661C198.884 54.6653 198.884 54.6646 198.884 54.6638C198.884 54.663 198.884 54.6622 198.884 54.6614C198.884 54.6607 198.884 54.6599 198.884 54.6591C198.884 54.6583 198.884 54.6576 198.884 54.6568C198.884 54.656 198.884 54.6552 198.884 54.6544C198.884 54.6537 198.884 54.6529 198.884 54.6521C198.884 54.6513 198.884 54.6505 198.884 54.6498C198.884 54.649 198.884 54.6482 198.884 54.6474C198.884 54.6466 198.884 54.6458 198.884 54.6451C198.884 54.6443 198.884 54.6435 198.884 54.6427C198.884 54.6419 198.884 54.6411 198.884 54.6404C198.884 54.6396 198.884 54.6388 198.884 54.638C198.884 54.6372 198.884 54.6364 198.884 54.6357C198.884 54.6349 198.884 54.6341 198.884 54.6333C198.884 54.6325 198.884 54.6317 198.884 54.6309C198.884 54.6302 198.884 54.6294 198.884 54.6286C198.884 54.6278 198.884 54.627 198.884 54.6262C198.884 54.6254 198.884 54.6246 198.884 54.6239C198.884 54.6231 198.884 54.6223 198.884 54.6215C198.884 54.6207 198.884 54.6199 198.884 54.6191C198.884 54.6183 198.884 54.6175 198.884 54.6167C198.884 54.616 198.884 54.6152 198.884 54.6144C198.884 54.6136 198.884 54.6128 198.884 54.612C198.884 54.6112 198.884 54.6104 198.884 54.6096C198.884 54.6088 198.884 54.608 198.884 54.6072C198.884 54.6065 198.884 54.6057 198.884 54.6049C198.884 54.6041 198.884 54.6033 198.884 54.6025C198.884 54.6017 198.884 54.6009 198.884 54.6001C198.884 54.5993 198.884 54.5985 198.884 54.5977C198.884 54.5969 198.884 54.5961 198.884 54.5953C198.884 54.5945 198.884 54.5937 198.884 54.5929C198.884 54.5921 198.884 54.5913 198.884 54.5905C198.884 54.5897 198.884 54.589 198.884 54.5882C198.884 54.5874 198.884 54.5866 198.884 54.5858C198.884 54.585 198.884 54.5842 198.884 54.5834C198.884 54.5826 198.884 54.5818 198.884 54.581C198.884 54.5802 198.884 54.5794 198.884 54.5786C198.884 54.5778 198.884 54.577 198.884 54.5762C198.884 54.5754 198.884 54.5746 198.884 54.5738C198.884 54.5729 198.884 54.5721 198.884 54.5713C198.884 54.5705 198.884 54.5697 198.884 54.5689C198.884 54.5681 198.884 54.5673 198.884 54.5665C198.884 54.5657 198.884 54.5649 198.884 54.5641C198.884 54.5633 198.884 54.5625 198.884 54.5617C198.884 54.5609 198.884 54.5601 198.884 54.5593C198.884 54.5585 198.884 54.5577 198.884 54.5569C198.884 54.5561 198.884 54.5552 198.884 54.5544C198.884 54.5536 198.884 54.5528 198.884 54.552C198.884 54.5512 198.884 54.5504 198.884 54.5496C198.884 54.5488 198.884 54.548 198.884 54.5472C198.884 54.5464 198.884 54.5455 198.884 54.5447C198.884 54.5439 198.884 54.5431 198.884 54.5423C198.884 54.5415 198.884 54.5407 198.884 54.5399C198.884 54.5391 198.884 54.5382 198.884 54.5374C198.884 54.5366 198.884 54.5358 198.884 54.535C198.884 54.5342 198.884 54.5334 198.884 54.5326C198.884 54.5317 198.884 54.5309 198.884 54.5301C198.884 54.5293 198.884 54.5285 198.884 54.5277C198.884 54.5269 198.884 54.526 198.884 54.5252C198.884 54.5244 198.884 54.5236 198.884 54.5228C198.884 54.522 198.884 54.5212 198.884 54.5203C198.884 54.5195 198.884 54.5187 198.884 54.5179C198.884 54.5171 198.884 54.5163 198.884 54.5154C198.884 54.5146 198.884 54.5138 198.884 54.513C198.884 54.5122 198.884 54.5113 198.884 54.5105C198.884 54.5097 198.884 54.5089 198.884 54.5081C198.884 54.5072 198.884 54.5064 198.884 54.5056C198.884 54.5048 198.884 54.504 198.884 54.5031C198.884 54.5023 198.884 54.5015 198.884 54.5007C198.884 54.4999 198.884 54.499 198.884 54.4982C198.884 54.4974 198.884 54.4966 198.884 54.4958C198.884 54.4949 198.884 54.4941 198.884 54.4933C198.884 54.4925 198.884 54.4916 198.884 54.4908C198.884 54.49 198.884 54.4892 198.884 54.4883C198.884 54.4875 198.884 54.4867 198.884 54.4859C198.884 54.485 198.884 54.4842 198.884 54.4834C198.884 54.4826 198.884 54.4817 198.884 54.4809C198.884 54.4801 198.884 54.4792 198.884 54.4784C198.884 54.4776 198.884 54.4768 198.884 54.4759C198.884 54.4751 198.884 54.4743 198.884 54.4735C198.884 54.4726 198.884 54.4718 198.884 54.471C198.884 54.4701 198.884 54.4693 198.884 54.4685C198.884 54.4676 198.884 54.4668 198.884 54.466C198.884 54.4652 198.884 54.4643 198.884 54.4635C198.884 54.4627 198.884 54.4618 198.884 54.461C198.884 54.4602 198.884 54.4593 198.884 54.4585C198.884 54.4577 198.884 54.4568 198.884 54.456H-101.116ZM-99.0756 80.1395C-98.6532 82.6739 -97.8573 87.1104 -96.51 92.4999L194.533 19.7401C195.795 24.7883 196.506 28.7981 196.843 30.8205L-99.0756 80.1395ZM55.8227 -93.7253C62.2359 -93.4338 72.2278 -92.5484 84.1758 -89.5614C95.7712 -86.6625 113.916 -80.6236 132.983 -67.2768L-39.0559 178.493C-3.18391 203.603 32.5762 205.528 42.2003 205.965L55.8227 -93.7253ZM124.138 -73.0159C139.321 -63.9063 158.236 -48.7358 173.203 -24.7878L-81.1963 134.212C-65.8021 158.842 -46.2469 174.61 -30.211 184.232L124.138 -73.0159ZM168.064 -32.4737C172.58 -26.1503 176.397 -19.7187 179.592 -13.3301L-88.7365 120.834C-85.2009 127.905 -80.9999 134.977 -76.0566 141.898L168.064 -32.4737ZM175.664 -20.669C156.405 -54.3713 128.489 -73.8138 105.516 -84.0237L-16.3253 190.12C-38.5296 180.251 -65.8917 161.278 -84.8089 128.173L175.664 -20.669ZM103.684 -84.8237C127.029 -74.8185 143.475 -60.763 154.082 -49.3397C164.586 -38.0286 171.344 -27.1996 175.448 -19.6762L-87.9206 123.98C-81.1227 136.443 -60.0875 171.379 -14.4926 190.92L103.684 -84.8237ZM175.448 -19.6757C181.261 -9.01821 184.96 0.972699 187.352 9.34375L-101.105 91.7602C-98.372 101.326 -94.2461 112.384 -87.9209 123.98L175.448 -19.6757ZM187.352 9.34404C189.001 15.1137 190.324 21.194 191.232 27.5468L-105.753 69.9732C-104.675 77.5207 -103.095 84.7956 -101.105 91.76L187.352 9.34404ZM191.232 27.5468C191.496 29.3977 191.816 31.9189 192.08 34.9495C192.335 37.8877 192.612 42.1334 192.612 47.288H-107.388C-107.388 57.584 -106.345 65.8315 -105.753 69.9732L191.232 27.5468ZM81.191 55.096L150.576 188.084L213.801 155.097L228.131 85.2376L81.191 55.096ZM78.055 55.864L59.4498 204.706L68.7163 205.864H78.055V55.864ZM74.087 54.84L16.7342 193.443L17.5543 193.782L18.3784 194.112L74.087 54.84ZM71.335 52.984L-76.7049 77.1538L-70.1834 117.098L-44.4545 148.34L71.335 52.984ZM70.503 47.224L219.4 29.0659L70.503 47.224ZM69.991 42.296L-79.5184 54.4184L-79.5048 54.5856L-79.4909 54.7528L69.991 42.296ZM69.735 37.816L-80.2002 42.2259L-80.1982 42.2926L-80.1962 42.3594L69.735 37.816ZM69.863 20.6L-80.0447 15.3401L-80.09 16.6307L-80.1131 17.9218L69.863 20.6ZM70.055 12.856L220.037 15.1994L220.037 15.1814L220.037 15.1634L70.055 12.856ZM70.119 3.832V-146.168H-79.881V3.832H70.119ZM72.615 4.344L28.5021 147.711L31.0475 148.494L33.6191 149.186L72.615 4.344ZM75.879 5.432L20.1702 144.703L21.0987 145.075L22.0322 145.434L75.879 5.432ZM78.823 6.776L6.53533 138.208L9.11138 139.625L11.741 140.94L78.823 6.776ZM80.231 7.864L221.492 58.3144L237.69 12.9615L224.46 -33.3441L80.231 7.864ZM79.079 12.536L-68.6054 -13.719L-68.8892 -12.1224L-69.1385 -10.5201L79.079 12.536ZM78.311 18.936L-71.073 5.35565L-71.1956 6.70464L-71.2939 8.05563L78.311 18.936ZM77.927 26.36L227.846 31.2754L227.846 31.2753L77.927 26.36ZM77.863 39.288L-72.0792 43.453L-72.0775 43.5125L-72.0758 43.572L77.863 39.288ZM77.991 43.384L-71.9199 48.5533L-71.8247 51.3149L-71.6278 54.0711L77.991 43.384ZM78.311 46.776L-70.6205 64.6477L-70.5765 65.0146L-70.5307 65.3812L78.311 46.776ZM78.759 49.848L-69.2001 74.5079L221.228 96.779L78.759 49.848ZM82.663 38.968L-56.6085 -16.7406L-56.8921 -16.0315L-57.1685 -15.3196L82.663 38.968ZM87.079 28.536L-49.4167 -33.6646L-49.5969 -33.2692L-49.7748 -32.8728L87.079 28.536ZM91.623 19.128L-41.7474 -49.5185L-41.7474 -49.5184L91.623 19.128ZM95.847 11.576L-31.2126 -68.1477L-31.4264 -67.8068L-31.6385 -67.4649L95.847 11.576ZM99.495 6.456L213.106 104.397L213.925 103.447L214.728 102.484L99.495 6.456ZM102.119 4.408L128.952 -143.172L106.33 -147.286L83.5135 -144.434L102.119 4.408ZM103.591 4.984L28.0107 134.551L34.213 138.169L40.7325 141.178L103.591 4.984ZM106.407 7.224L-9.68673 102.209L-9.68648 102.21L106.407 7.224ZM107.303 8.632L157.026 150.151L311.697 95.8071L243.858 -53.4385L107.303 8.632ZM102.183 12.536L-9.54236 -87.5512L-10.1267 -86.8988L-10.7035 -86.2397L102.183 12.536ZM96.743 19.96L222.981 100.978L223.253 100.555L223.522 100.129L96.743 19.96ZM91.367 29.368L-42.123 -39.0456L-42.2906 -38.7186L-42.4566 -38.3907L91.367 29.368ZM86.695 39.288L-50.8942 -20.4548L-51.2265 -19.6895L-51.5503 -18.9205L86.695 39.288ZM83.175 48.376L224.821 97.7373L224.821 97.7373L83.175 48.376ZM11.8061 -77.8917C32.2952 -88.5817 55.0596 -94.136 78.055 -94.136V205.864C103.269 205.864 128.124 199.798 150.576 188.084L11.8061 -77.8917ZM96.6602 -92.9777C108.046 -91.5545 119.191 -88.6734 129.796 -84.4315L18.3784 194.112C31.543 199.377 45.3336 202.941 59.4498 204.706L96.6602 -92.9777ZM131.44 -83.7625C143.871 -78.6186 166.854 -66.9867 187.125 -42.3721L-44.4545 148.34C-22.989 174.405 1.82847 187.275 16.7342 193.443L131.44 -83.7625ZM219.375 28.8142C219.339 28.5946 219.326 28.5038 219.33 28.5319C219.334 28.5581 219.36 28.7409 219.4 29.0659L-78.3939 65.3821C-77.8926 69.4929 -77.3098 73.4488 -76.7049 77.1538L219.375 28.8142ZM219.4 29.0659C219.386 28.9508 219.422 29.225 219.473 29.8392L-79.4909 54.7528C-79.1837 58.439 -78.8065 61.9985 -78.3939 65.3821L219.4 29.0659ZM219.5 30.1736C219.552 30.8132 219.623 31.8635 219.666 33.2726L-80.1962 42.3594C-80.0681 46.5845 -79.8262 50.6215 -79.5184 54.4184L219.5 30.1736ZM219.67 33.4061C219.671 33.4244 219.671 33.4438 219.671 33.464H-80.329C-80.329 36.3855 -80.286 39.3063 -80.2002 42.2259L219.67 33.4061ZM219.671 33.464C219.671 32.6466 219.68 31.6253 219.705 30.3834L-80.235 24.3846C-80.2955 27.4094 -80.329 30.4414 -80.329 33.464H219.671ZM219.705 30.3834C219.75 28.1312 219.795 25.7621 219.839 23.2781L-80.1131 17.9218C-80.1541 20.2166 -80.1947 22.3701 -80.235 24.3846L219.705 30.3834ZM219.771 25.8599C219.894 22.3473 219.981 18.7872 220.037 15.1994L-79.9267 10.5126C-79.956 12.3861 -79.9973 13.9887 -80.0447 15.3401L219.771 25.8599ZM220.037 15.1634C220.094 11.5058 220.119 7.71924 220.119 3.832L-79.881 3.832C-79.881 6.43009 -79.8982 8.65957 -79.9273 10.5486L220.037 15.1634ZM70.119 153.832C56.4392 153.832 45.8852 151.899 41.0173 150.9C35.3728 149.743 31.0075 148.482 28.5021 147.711L116.728 -139.023C113.391 -140.049 94.4613 -146.168 70.119 -146.168V153.832ZM33.6191 149.186C29.0531 147.957 24.5605 146.46 20.1702 144.703L131.588 -133.839C125.064 -136.449 118.396 -138.672 111.611 -140.498L33.6191 149.186ZM22.0322 145.434C18.1323 143.934 12.7538 141.629 6.53533 138.208L151.111 -124.656C143.185 -129.015 135.844 -132.217 129.726 -134.57L22.0322 145.434ZM11.741 140.94C8.0342 139.087 -1.25424 134.289 -11.9022 126.061C-17.3782 121.829 -25.9625 114.597 -34.8339 104.02C-43.3679 93.8445 -56.4445 75.5079 -63.9976 49.0721L224.46 -33.3441C210.641 -81.7094 177.425 -106.771 171.532 -111.325C160.415 -119.915 150.465 -125.108 145.905 -127.388L11.741 140.94ZM-61.0303 -42.5864C-65.3384 -30.5237 -67.4896 -19.9951 -68.6054 -13.719L226.763 38.791C226.476 40.4088 226.003 42.8296 225.261 45.8387C224.541 48.7597 223.358 53.0914 221.492 58.3144L-61.0303 -42.5864ZM-69.1385 -10.5201C-70.016 -4.87864 -70.6296 0.478022 -71.073 5.35565L227.695 32.5163C227.678 32.7006 227.577 33.7906 227.296 35.5921L-69.1385 -10.5201ZM-71.2939 8.05563C-71.6233 12.5846 -71.8486 17.0587 -71.9924 21.4447L227.846 31.2753C227.873 30.456 227.904 29.9807 227.916 29.8164L-71.2939 8.05563ZM-71.9924 21.4446C-72.1306 25.6571 -72.201 29.8773 -72.201 34.104H227.799C227.799 33.2107 227.814 32.2682 227.846 31.2754L-71.9924 21.4446ZM-72.201 34.104C-72.201 37.0874 -72.1685 40.2381 -72.0792 43.453L227.805 35.123C227.808 35.2138 227.806 35.1742 227.804 34.9883C227.801 34.8047 227.799 34.5134 227.799 34.104H-72.201ZM-72.0758 43.572C-72.0264 45.3026 -71.9746 46.9682 -71.9199 48.5533L227.902 38.2147C227.871 37.3251 227.838 36.2601 227.802 35.004L-72.0758 43.572ZM-71.6278 54.0711C-71.3902 57.3979 -71.0655 60.9395 -70.6205 64.6477L227.243 28.9043C227.432 30.4792 227.543 31.7594 227.61 32.6969L-71.6278 54.0711ZM-70.5307 65.3812C-70.1482 68.4412 -69.7041 71.4838 -69.2001 74.5079L226.718 25.1881C226.881 26.1642 227.026 27.1588 227.153 28.1708L-70.5307 65.3812ZM221.228 96.779C221.593 95.6731 222.012 94.499 222.495 93.2556L-57.1685 -15.3196C-59.5018 -9.30967 -61.6852 -3.23042 -63.7102 2.91697L221.228 96.779ZM221.935 94.6766C222.672 92.833 223.341 91.2629 223.933 89.9448L-49.7748 -32.8728C-52.17 -27.5349 -54.4446 -22.1504 -56.6085 -16.7406L221.935 94.6766ZM223.575 90.7366C224.25 89.2552 224.727 88.2919 224.993 87.7744L-41.7474 -49.5184C-44.4677 -44.2332 -47.0198 -38.9245 -49.4167 -33.6646L223.575 90.7366ZM224.993 87.7745C225.048 87.6678 224.955 87.8539 224.713 88.2869C224.476 88.7108 224.016 89.5138 223.332 90.6169L-31.6385 -67.4649C-35.5724 -61.1198 -38.9383 -54.9761 -41.7474 -49.5185L224.993 87.7745ZM222.907 91.2997C222.362 92.1677 221.37 93.707 219.946 95.7053C218.579 97.6234 216.292 100.702 213.106 104.397L-14.1164 -91.4851C-22.0787 -82.2488 -27.8252 -73.5464 -31.2126 -68.1477L222.907 91.2997ZM214.728 102.484C211.468 106.396 204.283 114.613 193.242 123.231C184.126 130.346 158.991 148.466 120.724 153.25L83.5135 -144.434C44.5639 -139.565 18.6503 -121.06 8.66038 -113.263C-3.2561 -103.963 -11.4113 -94.7639 -15.7382 -89.5717L214.728 102.484ZM75.2857 151.988C54.9867 148.298 39.0587 140.996 28.0107 134.551L179.171 -124.583C167.099 -131.625 150.19 -139.311 128.952 -143.172L75.2857 151.988ZM40.7325 141.178C29.8574 136.159 19.5612 129.745 10.1412 122.037L200.113 -110.149C189.754 -118.625 178.434 -125.679 166.45 -131.21L40.7325 141.178ZM10.1412 122.037C2.89018 116.105 -3.75413 109.46 -9.68673 102.209L222.501 -87.7615C215.8 -95.9511 208.302 -103.449 200.113 -110.149L10.1412 122.037ZM-9.68648 102.21C-16.1156 94.352 -23.252 83.9024 -29.2519 70.7025L243.858 -53.4385C237.431 -67.5771 229.698 -78.9653 222.5 -87.7618L-9.68648 102.21ZM57.5801 -132.887C21.5095 -120.214 -0.488665 -97.6576 -9.54236 -87.5512L213.908 112.623C210.182 116.783 204.2 122.892 195.79 129.304C187.497 135.629 174.566 143.988 157.026 150.151L57.5801 -132.887ZM-10.7035 -86.2397C-18.7172 -77.0812 -25.0761 -68.0527 -30.036 -60.209L223.522 100.129C222.231 102.17 219.499 106.249 215.069 111.312L-10.7035 -86.2397ZM-29.4949 -61.0584C-34.258 -53.6368 -38.4385 -46.2348 -42.123 -39.0456L224.857 97.7816C224.671 98.1442 224.075 99.2742 222.981 100.978L-29.4949 -61.0584ZM-42.4566 -38.3907C-45.407 -32.5638 -48.2333 -26.583 -50.8942 -20.4548L224.284 99.0308C224.439 98.6737 224.728 98.0411 225.191 97.1267L-42.4566 -38.3907ZM-51.5503 -18.9205C-53.9311 -13.2661 -56.2846 -7.25789 -58.4705 -0.985324L224.821 97.7373C224.701 98.0797 224.643 98.2279 224.666 98.1687C224.688 98.1114 224.774 97.8905 224.94 97.4965L-51.5503 -18.9205ZM-58.4705 -0.985328C-60.2716 4.18306 -63.4367 13.6799 -65.7494 24.9544L228.131 85.2376C227.202 89.767 226.264 93.0829 225.804 94.6413C225.296 96.3633 224.919 97.4553 224.821 97.7373L-58.4705 -0.985328ZM142.067 7.864L289.785 -18.2039L275.915 -96.7955L202.988 -129.208L142.067 7.864ZM142.323 9.4L-6.16945 30.613L-4.25659 44.0031L0.0207899 56.835L142.323 9.4ZM141.491 14.456L8.25845 -54.4576L7.78642 -53.545L7.32692 -52.626L141.491 14.456ZM138.995 17.016L18.4614 106.3L92.2085 205.859L203.905 152.244L138.995 17.016ZM135.859 14.072L50.6991 137.554L52.1653 138.565L53.6552 139.541L135.859 14.072ZM131.763 12.024L78.1923 152.132L80.6377 153.067L83.1143 153.916L131.763 12.024ZM118.387 10.808L143.047 158.767L144.973 158.446L146.89 158.075L118.387 10.808ZM114.931 11.768L169.591 151.454L171.114 150.859L172.623 150.23L114.931 11.768ZM112.563 13.24L6.49698 -92.826L4.5335 -90.8625L2.64403 -88.8277L112.563 13.24ZM111.731 15.288H-38.269V25.4681L-36.8935 35.5549L111.731 15.288ZM113.459 18.168L9.67324 126.466L10.8742 127.617L12.1003 128.741L113.459 18.168ZM117.235 20.984L37.4092 147.979L38.7265 148.807L40.0606 149.608L117.235 20.984ZM122.163 23.672L55.081 157.836L55.7079 158.15L56.3377 158.457L122.163 23.672ZM127.539 26.232L191.409 -109.491L191.009 -109.679L190.608 -109.865L127.539 26.232ZM133.171 29.112L59.1302 159.565L60.4791 160.33L61.8435 161.068L133.171 29.112ZM137.075 31.992L28.8669 135.872L29.9268 136.976L31.009 138.058L137.075 31.992ZM139.379 35.512L-0.50626 89.661L-0.506178 89.6612L139.379 35.512ZM139.059 46.456L278.979 100.516L279.181 99.9918L279.38 99.4661L139.059 46.456ZM135.859 51.384L29.793 -54.682L28.9771 -53.8662L28.1739 -53.0379L135.859 51.384ZM130.867 54.648L76.2071 -85.0384L74.9001 -84.527L73.603 -83.9912L130.867 54.648ZM116.531 54.776L78.5768 199.895L78.5769 199.895L116.531 54.776ZM108.723 51.768L178.585 -80.9697L178.144 -81.2019L177.701 -81.4312L108.723 51.768ZM102.707 47.48L-6.11254 150.719L-4.75438 152.151L-3.35902 153.546L102.707 47.48ZM101.043 38.968L-38.8422 -15.1811L-39.61 -13.1978L-40.3212 -11.1935L101.043 38.968ZM103.731 34.808L252.987 19.8825L218.77 -322.285L-8.74468 -64.4352L103.731 34.808ZM105.779 39.352L-16.6833 125.972L-15.9873 126.956L-15.2756 127.928L105.779 39.352ZM111.475 44.216L34.9447 173.224L35.4915 173.549L36.041 173.868L111.475 44.216ZM118.707 47.224L81.1496 192.446L82.6089 192.823L84.0754 193.171L118.707 47.224ZM131.571 47.224L187.28 186.496L187.28 186.495L131.571 47.224ZM135.091 45.112L238.403 153.862L239.797 152.538L241.157 151.178L135.091 45.112ZM136.883 42.552L276.154 98.2607L276.155 98.2603L136.883 42.552ZM137.459 40.504L286.941 52.9614L287.771 42.9982L287.272 33.013L137.459 40.504ZM136.243 38.072L24.4568 138.091L27.2329 141.194L30.1769 144.138L136.243 38.072ZM133.235 35.768L54.1305 163.214L56.6763 164.794L59.2832 166.271L133.235 35.768ZM128.883 33.464L191.742 -102.73L191.742 -102.73L128.883 33.464ZM123.699 31.16L62.7782 168.232L63.692 168.638L64.6112 169.032L123.699 31.16ZM116.723 27.832L43.8766 158.956L45.5951 159.91L47.3381 160.82L116.723 27.832ZM111.923 24.632L11.7912 136.317L13.8112 138.128L15.8953 139.865L111.923 24.632ZM109.171 21.176L-26.8803 84.3427L-25.9651 86.3141L-24.993 88.2581L109.171 21.176ZM110.515 10.296L234.554 94.6425L234.554 94.6425L110.515 10.296ZM116.787 5.432L173.243 144.402L175.087 143.653L176.91 142.856L116.787 5.432ZM121.139 4.152L97.1284 -143.914L96.8036 -143.861L96.479 -143.807L121.139 4.152ZM-5.65051 33.9319C-5.63811 34.0022 -5.67168 33.8143 -5.73208 33.4519C-5.76361 33.2627 -5.81611 32.9441 -5.88145 32.5304C-5.94245 32.144 -6.04681 31.4715 -6.16945 30.613L290.815 -11.813C290.387 -14.8088 289.909 -17.5 289.785 -18.2039L-5.65051 33.9319ZM0.0207899 56.835C-4.08148 44.5285 -5.76748 34.072 -6.55356 27.3905C-7.37719 20.3896 -7.549 14.5531 -7.549 10.488L292.451 10.488C292.451 3.95695 292.234 -15.2078 284.625 -38.035L0.0207899 56.835ZM-7.549 10.488C-7.549 -11.8173 -2.24158 -34.1576 8.25845 -54.4576L274.724 83.3696C286.504 60.595 292.451 35.6093 292.451 10.488L-7.549 10.488ZM7.32692 -52.626C19.5964 -77.1649 41.3167 -102.483 74.0852 -118.212L203.905 152.244C238.807 135.491 262.191 108.466 275.655 81.538L7.32692 -52.626ZM259.529 -72.2681C247.799 -88.1026 233.634 -101.196 218.063 -111.397L53.6552 139.541C40.5589 130.961 28.4839 119.831 18.4614 106.3L259.529 -72.2681ZM221.019 -109.41C207.954 -118.42 194.206 -125.138 180.412 -129.868L83.1143 153.916C72.3065 150.21 61.2889 144.857 50.6991 137.554L221.019 -109.41ZM185.334 -128.084C174.047 -132.399 162.607 -135.413 151.23 -137.258L103.208 158.874C94.9886 157.541 86.5781 155.338 78.1923 152.132L185.334 -128.084ZM151.23 -137.258C142.268 -138.711 132.691 -139.576 122.611 -139.576V160.424C115.518 160.424 109.012 159.815 103.208 158.874L151.23 -137.258ZM122.611 -139.576C112.568 -139.576 101.547 -138.716 89.8838 -136.459L146.89 158.075C137.873 159.82 129.668 160.424 122.611 160.424V-139.576ZM93.7272 -137.151C82.9708 -135.358 70.4845 -132.213 57.2387 -126.694L172.623 150.23C161.426 154.895 151.243 157.401 143.047 158.767L93.7272 -137.151ZM60.2711 -127.918C44.641 -121.802 24.8707 -111.2 6.49698 -92.826L218.629 119.306C201.45 136.485 183.258 146.106 169.591 151.454L60.2711 -127.918ZM2.64403 -88.8277C-21.9386 -62.3541 -38.269 -25.8169 -38.269 15.288H261.731C261.731 54.8569 245.955 90.0288 222.482 115.308L2.64403 -88.8277ZM-36.8935 35.5549C-30.4033 83.1501 -4.1631 113.206 9.67324 126.466L217.245 -90.1303C229.033 -78.8331 254.121 -50.6968 260.356 -4.97891L-36.8935 35.5549ZM12.1003 128.741C21.2919 137.167 30.198 143.447 37.4092 147.979L197.061 -106.011C201.285 -103.356 207.674 -98.9534 214.818 -92.4051L12.1003 128.741ZM40.0606 149.608C45.291 152.746 50.353 155.472 55.081 157.836L189.245 -110.492C190.389 -109.92 192.166 -108.986 194.409 -107.64L40.0606 149.608ZM56.3377 158.457C59.0335 159.774 61.7453 161.066 64.4699 162.329L190.608 -109.865C189.834 -110.223 188.962 -110.638 187.988 -111.113L56.3377 158.457ZM63.6694 161.955C63.4726 161.862 62.9953 161.634 62.2856 161.272C61.5869 160.914 60.5065 160.346 59.1302 159.565L207.212 -101.341C201.447 -104.613 196.006 -107.327 191.409 -109.491L63.6694 161.955ZM61.8435 161.068C52.5653 156.053 40.621 148.116 28.8669 135.872L245.283 -71.8877C231.481 -86.265 216.934 -96.1221 204.499 -102.844L61.8435 161.068ZM31.009 138.058C17.589 124.638 6.68016 108.226 -0.50626 89.661L279.264 -18.637C271.054 -39.8473 258.609 -58.606 243.141 -74.0741L31.009 138.058ZM-0.506178 89.6612C-8.45684 69.122 -9.853 51.2939 -9.853 40.312H290.147C290.147 25.5755 288.239 4.54729 279.264 -18.6372L-0.506178 89.6612ZM-9.853 40.312C-9.853 25.4791 -7.3141 9.46667 -1.26179 -6.55414L279.38 99.4661C286.883 79.6053 290.147 59.4969 290.147 40.312H-9.853ZM-0.860698 -7.60394C5.86685 -25.0164 16.2521 -41.1412 29.793 -54.682L241.925 157.45C258.282 141.093 270.8 121.683 278.979 100.516L-0.860698 -7.60394ZM28.1739 -53.0379C42.8488 -68.1713 59.6898 -78.5751 76.2071 -85.0384L185.527 194.334C205.97 186.335 226.139 173.755 243.544 155.806L28.1739 -53.0379ZM73.603 -83.9912C92.2461 -91.6916 109.891 -94.136 124.275 -94.136V205.864C143.523 205.864 165.563 202.609 188.131 193.287L73.603 -83.9912ZM124.275 -94.136C136.941 -94.136 147.249 -92.2354 154.485 -90.3429L78.5769 199.895C91.3597 203.238 106.83 205.864 124.275 205.864V-94.136ZM154.485 -90.3429C162.309 -88.2966 170.462 -85.2452 178.585 -80.9697L38.861 184.506C51.8484 191.341 65.2064 196.398 78.5768 199.895L154.485 -90.3429ZM177.701 -81.4312C186.682 -76.7801 197.799 -69.5602 208.773 -58.586L-3.35902 153.546C10.8578 167.763 25.9849 177.841 39.7449 184.967L177.701 -81.4312ZM211.527 -55.7591C229.457 -36.8592 250.339 -3.36064 250.339 42.232H-49.661C-49.661 91.494 -27.2005 128.491 -6.11254 150.719L211.527 -55.7591ZM250.339 42.232C250.339 55.0817 248.631 65.504 247.143 72.4017C245.609 79.514 243.796 85.2154 242.407 89.1295L-40.3212 -11.1935C-43.3134 -2.76091 -49.661 16.8156 -49.661 42.232H250.339ZM240.928 93.1171C233.178 113.138 222.674 126.721 216.207 134.051L-8.74468 -64.4352C-17.7721 -54.2041 -30.0682 -37.8473 -38.8422 -15.1811L240.928 93.1171ZM-45.5246 49.7335C-41.6309 88.6707 -24.0683 115.531 -16.6833 125.972L228.241 -47.2677C231.671 -42.4182 236.538 -34.833 241.091 -24.7308C245.577 -14.7788 251.044 0.456816 252.987 19.8825L-45.5246 49.7335ZM-15.2756 127.928C1.36527 150.671 20.7598 164.809 34.9447 173.224L188.005 -84.7922C197.156 -79.3641 212.753 -68.4683 226.834 -49.2245L-15.2756 127.928ZM36.041 173.868C49.5064 181.703 64.5974 188.165 81.1496 192.446L156.264 -97.998C167.867 -94.9973 178.137 -90.54 186.909 -85.4362L36.041 173.868ZM84.0754 193.171C95.8751 195.971 109.962 198.12 125.747 198.12V-101.88C137.18 -101.88 146.574 -100.329 153.339 -98.7234L84.0754 193.171ZM125.747 198.12C138.814 198.12 161.653 196.746 187.28 186.496L75.8624 -92.0475C98.5024 -101.104 117.458 -101.88 125.747 -101.88V198.12ZM187.28 186.495C200.38 181.255 219.714 171.617 238.403 153.862L31.7787 -63.638C48.7617 -79.7719 65.7489 -88.0021 75.8623 -92.0475L187.28 186.495ZM241.157 151.178C252.094 140.241 266.305 122.883 276.154 98.2607L-2.38846 -13.1567C6.77787 -36.0725 19.7945 -51.7236 29.0249 -60.954L241.157 151.178ZM276.155 98.2603C278.399 92.6487 285.051 75.6423 286.941 52.9614L-12.0228 28.0466C-11.0154 15.9578 -8.70754 6.45182 -7.11464 0.788155C-5.42273 -5.22752 -3.6498 -10.0033 -2.38861 -13.1563L276.155 98.2603ZM287.272 33.013C284.909 -14.2354 261.996 -48.3071 242.309 -67.9939L30.1769 144.138C12.0261 125.987 -10.0766 93.5367 -12.3538 47.995L287.272 33.013ZM248.029 -61.9473C233.359 -78.343 217.991 -88.6128 207.187 -94.7354L59.2832 166.271C51.0387 161.599 37.6761 152.866 24.4568 138.091L248.029 -61.9473ZM212.339 -91.678C204.74 -96.3951 197.639 -100.008 191.742 -102.73L66.0242 169.658C63.4549 168.472 59.2556 166.395 54.1305 163.214L212.339 -91.678ZM191.742 -102.73C188.752 -104.11 185.764 -105.436 182.787 -106.712L64.6112 169.032C65.218 169.292 65.6856 169.502 66.0243 169.658L191.742 -102.73ZM184.62 -105.912C184.337 -106.037 184.318 -106.05 184.525 -105.951C184.723 -105.857 185.273 -105.591 186.108 -105.156L47.3381 160.82C52.8083 163.674 58.093 166.149 62.7782 168.232L184.62 -105.912ZM189.569 -103.292C193.433 -101.145 200.162 -97.0921 207.951 -90.6012L15.8953 139.865C26.2444 148.489 36.1729 154.676 43.8766 158.956L189.569 -103.292ZM212.055 -87.0534C221.556 -78.5352 233.712 -65.1531 243.335 -45.9061L-24.993 88.2581C-14.1749 109.894 -0.184554 125.58 11.7912 136.317L212.055 -87.0534ZM245.222 -41.9907C255.261 -20.3694 258.339 0.398323 258.339 17.08H-41.661C-41.661 36.8337 -38.0282 60.332 -26.8803 84.3427L245.222 -41.9907ZM258.339 17.08C258.339 47.195 248.604 73.9805 234.554 94.6425L-13.524 -74.0505C-30.4755 -49.1219 -41.661 -17.8137 -41.661 17.08H258.339ZM234.554 94.6425C217.075 120.348 193.912 136.006 173.243 144.402L60.3305 -133.538C34.201 -122.923 6.85676 -104.022 -13.524 -74.0505L234.554 94.6425ZM176.91 142.856C166.436 147.438 155.925 150.423 145.799 152.111L96.479 -143.807C83.2809 -141.607 69.8686 -137.769 56.6642 -131.992L176.91 142.856ZM145.15 152.218C139.346 153.159 132.84 153.768 125.747 153.768V-146.232C115.667 -146.232 106.09 -145.367 97.1284 -143.914L145.15 152.218ZM125.747 153.768C114.729 153.768 103.607 152.238 92.7948 149.149L175.211 -139.309C159.023 -143.934 142.397 -146.232 125.747 -146.232V153.768ZM92.7948 149.149C88.4137 147.897 84.5233 146.437 81.1462 144.936L202.988 -129.208C194.235 -133.098 184.968 -136.521 175.211 -139.309L92.7948 149.149Z" fill="#021526" mask="url(#path-2-inside-1_0_1)"/>
</svg>
