<svg width="1305" height="1305" viewBox="0 0 1305 1305" fill="none" xmlns="http://www.w3.org/2000/svg">
<path d="M652.5 0C566.812 -1.02181e-06 481.964 16.8774 402.799 49.6686C323.634 82.4598 251.703 130.523 191.113 191.113C130.523 251.703 82.4598 323.634 49.6686 402.799C16.8774 481.964 -2.72371e-06 566.812 0 652.5C2.72371e-06 738.188 16.8774 823.036 49.6686 902.201C82.4598 981.366 130.523 1053.3 191.113 1113.89C251.703 1174.48 323.634 1222.54 402.799 1255.33C481.964 1288.12 566.813 1305 652.5 1305L652.5 652.5L652.5 0Z" fill="#6EACDA"/>
<path d="M652.5 0C738.188 -1.02181e-06 823.036 16.8774 902.201 49.6686C981.366 82.4598 1053.3 130.523 1113.89 191.113C1174.48 251.703 1222.54 323.634 1255.33 402.799C1288.12 481.964 1305 566.812 1305 652.5C1305 738.188 1288.12 823.036 1255.33 902.201C1222.54 981.366 1174.48 1053.3 1113.89 1113.89C1053.3 1174.48 981.366 1222.54 902.201 1255.33C823.036 1288.12 738.187 1305 652.5 1305L652.5 652.5L652.5 0Z" fill="#03346E"/>
<path d="M655.186 875.503C633.752 875.702 616.225 857.837 616.052 835.636L615.389 750.502C615.309 739.84 619.322 729.582 626.543 721.983C633.765 714.385 643.604 710.068 653.898 709.983C675.322 709.809 692.835 727.655 693.023 749.875L693.671 834.989C693.854 857.19 676.61 875.349 655.186 875.503Z" fill="#E2E2B6"/>
<path d="M908.393 896.624L402.33 900.849C380.896 901.023 363.364 883.157 363.195 860.977C363.112 850.312 367.123 840.049 374.345 832.447C381.566 824.844 391.408 820.525 401.705 820.438L907.787 816.218C929.202 816.043 946.715 833.904 946.902 856.11C947.051 878.31 929.846 896.45 908.393 896.624Z" fill="#E2E2B6"/>
<path d="M411.702 742.194L411.696 742.194C387.619 742.411 367.339 722.236 367.151 696.409L367.151 696.403L364.609 370.708C364.609 370.706 364.609 370.704 364.609 370.702C364.424 344.897 384.371 324.397 408.457 324.197L408.457 324.197L893.306 320.151C893.307 320.151 893.307 320.151 893.308 320.151C917.399 319.956 937.657 340.113 937.844 365.902L937.845 365.907L940.386 691.629C940.386 691.63 940.386 691.631 940.386 691.633C940.576 717.469 920.643 737.958 896.553 738.168C896.552 738.168 896.551 738.168 896.549 738.168L411.702 742.194Z" fill="#6EACDA" stroke="black" stroke-width="20"/>
<mask id="path-6-inside-1_15_147" fill="white">
<path d="M412.177 752.043C382.235 752.312 357.769 727.344 357.543 696.331L355.002 370.629C354.776 339.645 378.823 314.295 408.766 314.046L893.617 310"/>
</mask>
<path d="M412.177 752.043C382.235 752.312 357.769 727.344 357.543 696.331L355.002 370.629C354.776 339.645 378.823 314.295 408.766 314.046L893.617 310" fill="#03346E"/>
<path d="M357.543 696.331L377.543 696.185L377.543 696.174L357.543 696.331ZM355.002 370.629L335.002 370.775L335.002 370.786L355.002 370.629ZM408.766 314.046L408.932 334.045L408.933 334.045L408.766 314.046ZM411.998 732.044C393.787 732.207 377.693 716.826 377.543 696.185L337.544 696.476C337.845 737.863 370.682 772.416 412.357 772.042L411.998 732.044ZM377.543 696.174L375.001 370.473L335.002 370.786L337.544 696.487L377.543 696.174ZM375.001 370.484C374.851 349.853 390.699 334.197 408.932 334.045L408.6 294.047C366.947 294.393 334.701 329.438 335.002 370.775L375.001 370.484ZM408.933 334.045L893.784 329.999L893.45 290.001L408.599 294.047L408.933 334.045Z" fill="black" mask="url(#path-6-inside-1_15_147)"/>
<path d="M563.723 390.401L563.724 390.401C570.333 390.361 574.533 386.244 574.5 382.394C574.454 378.53 570.142 374.46 563.546 374.5L563.723 390.401ZM563.723 390.401L389.461 391.5C389.461 391.5 389.461 391.5 389.461 391.5C382.851 391.54 378.539 387.463 378.5 383.61L378.5 383.609C378.481 381.727 379.412 379.752 381.395 378.176C383.393 376.589 386.222 375.617 389.277 375.597C389.277 375.597 389.277 375.597 389.277 375.597L563.546 374.5L563.723 390.401Z" fill="#E2E2B6" stroke="#03346E" stroke-width="5"/>
<path d="M378.5 497.526L378.5 497.525C378.493 497.192 378.641 496.588 379.526 495.746C380.417 494.899 381.883 493.991 383.998 493.163C388.223 491.51 394.154 490.517 400.485 490.498C400.485 490.498 400.485 490.498 400.485 490.498L722.146 489.5C728.723 489.48 734.593 490.495 738.742 492.068C740.824 492.858 742.35 493.742 743.317 494.602C744.281 495.461 744.489 496.102 744.5 496.478C744.505 496.842 744.334 497.458 743.429 498.301C742.515 499.152 741.042 500.038 738.999 500.838C734.929 502.431 729.107 503.481 722.516 503.501L400.867 504.5C394.283 504.52 388.407 503.505 384.255 501.932C382.17 501.142 380.645 500.259 379.678 499.399C378.709 498.537 378.508 497.896 378.5 497.526Z" fill="#E2E2B6" stroke="#03346E" stroke-width="5"/>
<path d="M825.26 540.501L825.266 543.001L825.26 540.501L408.243 541.5C408.243 541.5 408.243 541.5 408.243 541.5C399.584 541.52 391.806 540.492 386.255 538.87C383.464 538.054 381.373 537.128 380.029 536.205C378.609 535.231 378.503 534.613 378.5 534.511L378.5 534.509C378.499 534.46 378.521 533.901 379.816 532.951C381.058 532.039 383.073 531.086 385.911 530.229C391.562 528.523 399.416 527.518 407.74 527.498C407.74 527.498 407.741 527.498 407.741 527.498L824.773 526.5C833.424 526.48 841.194 527.508 846.741 529.13C849.529 529.946 851.619 530.872 852.964 531.796C854.353 532.749 854.492 533.364 854.5 533.493C854.498 533.595 854.421 534.166 853.121 535.1C851.847 536.015 849.825 536.946 847.085 537.773C841.639 539.417 833.928 540.481 825.26 540.501Z" fill="#E2E2B6" stroke="#03346E" stroke-width="5"/>
<path d="M378.5 460.526L378.5 460.525C378.493 460.192 378.641 459.588 379.526 458.746C380.417 457.899 381.883 456.991 383.998 456.163C388.223 454.51 394.154 453.517 400.485 453.498C400.485 453.498 400.485 453.498 400.485 453.498L722.146 452.5C728.723 452.48 734.593 453.495 738.742 455.068C740.824 455.858 742.35 456.742 743.317 457.602C744.281 458.461 744.489 459.102 744.5 459.478C744.505 459.842 744.334 460.458 743.429 461.301C742.515 462.152 741.042 463.038 738.999 463.838C734.929 465.431 729.107 466.481 722.516 466.501L400.867 467.5C394.283 467.52 388.407 466.505 384.255 464.932C382.17 464.142 380.645 463.259 379.678 462.399C378.709 461.537 378.508 460.896 378.5 460.526Z" fill="#E2E2B6" stroke="#03346E" stroke-width="5"/>
<path d="M796.304 430.351L796.311 432.851L796.304 430.351L406.164 431.5C398.117 431.523 390.907 430.348 385.783 428.507C383.211 427.583 381.293 426.538 380.058 425.496C378.811 424.444 378.511 423.625 378.5 423.11L378.5 423.109C378.49 422.641 378.717 421.863 379.861 420.832C381.004 419.8 382.853 418.724 385.466 417.755C390.682 415.819 397.96 414.67 405.697 414.647C405.697 414.647 405.697 414.647 405.697 414.647L795.852 413.5C803.891 413.477 811.092 414.652 816.213 416.493C818.783 417.417 820.7 418.463 821.936 419.506C823.178 420.554 823.485 421.373 823.5 421.894C823.508 422.401 823.251 423.192 822.08 424.226C820.908 425.26 819.054 426.311 816.53 427.247C811.505 429.112 804.36 430.328 796.304 430.351Z" fill="#E2E2B6" stroke="#03346E" stroke-width="5"/>
<path d="M378.5 460.526L378.5 460.525C378.493 460.192 378.641 459.588 379.526 458.746C380.417 457.899 381.883 456.991 383.998 456.163C388.223 454.51 394.154 453.517 400.485 453.498C400.485 453.498 400.485 453.498 400.485 453.498L722.146 452.5C728.723 452.48 734.593 453.495 738.742 455.068C740.824 455.858 742.35 456.742 743.317 457.602C744.281 458.461 744.489 459.102 744.5 459.478C744.505 459.842 744.334 460.458 743.429 461.301C742.515 462.152 741.042 463.038 738.999 463.838C734.929 465.431 729.107 466.481 722.516 466.501L400.867 467.5C394.283 467.52 388.407 466.505 384.255 464.932C382.17 464.142 380.645 463.259 379.678 462.399C378.709 461.537 378.508 460.896 378.5 460.526Z" fill="#E2E2B6" stroke="#03346E" stroke-width="5"/>
</svg>
