<svg width="693" height="683" viewBox="0 0 693 683" fill="none" xmlns="http://www.w3.org/2000/svg">
<path fill-rule="evenodd" clip-rule="evenodd" d="M89.4917 422.436H229.664V476.897H5.4189V240.137H164.423L201.614 294.59H89.4917V333.662H190.856V383.369H89.4917V422.436ZM378.911 240.137L331.301 317.402L283.782 240.137H190.851L288.769 383.369V476.897H372.599V383.369L470.654 240.137H378.911ZM34.2011 592.187H5.4189V534.564H34.4942C47.9555 534.564 55.6766 540.035 55.6766 549.582C55.6766 554.349 52.5841 558.83 47.9101 560.96C51.4523 562.27 58.001 565.774 58.001 573.768C58.001 585.299 49.1026 592.187 34.2011 592.187ZM44.5953 574.19C44.5953 568.774 41.1188 566.03 34.2415 566.03H18.0869V582.431H34.2415C40.8206 582.431 44.5953 579.431 44.5953 574.19ZM42.4629 550.538C42.4629 546.368 39.522 544.337 33.4634 544.337H18.0819V556.641H34.1405C41.0227 556.641 42.4629 553.321 42.4629 550.538ZM85.52 593.084C90.4012 593.084 94.4033 591.65 97.4351 588.82V592.187H109.744V550.094H97.4351V573.345C97.4351 580.122 94.3173 583.558 88.1728 583.558C81.9171 583.558 79.0066 580.293 79.0066 573.277V550.094H66.6923V573.883C66.6923 581.053 69.143 593.084 85.52 593.084ZM254.509 568.924C254.509 562.245 257.779 558.711 263.964 558.711C270.088 558.711 272.938 561.976 272.938 568.992V592.187H285.242V568.386C285.242 555.822 278.931 549.185 266.996 549.185C261.917 549.185 257.526 550.764 254.509 553.641V550.094H242.195V592.187H254.509V568.924ZM120.811 592.187H133.125V550.094H120.811V592.187ZM144.09 592.187H156.404V532.588L144.09 537.79V592.187ZM195.56 537.79L207.854 532.592V592.187H195.56V588.97C192.261 591.782 188.39 593.084 184.252 593.084C172.185 593.084 164.974 584.719 164.974 570.712C164.974 557.439 172.458 549.194 184.509 549.194C188.693 549.194 192.559 550.431 195.56 553.056V537.79ZM195.56 579.358V562.825C194.12 561.041 191.356 558.719 186.738 558.719C182.534 558.719 177.516 560.755 177.516 570.469C177.516 581.245 182.62 583.507 186.899 583.507C191.467 583.507 193.731 581.364 195.56 579.358ZM483.615 570.712C483.615 584.928 476.586 593.084 464.312 593.084C459.936 593.084 456.046 591.692 452.999 589.038V592.187H440.699V538.853L452.999 533.672V553.099C456.131 550.649 460.214 549.194 464.055 549.194C476.126 549.194 483.615 557.439 483.615 570.712ZM452.999 562.996V579.546C454.327 580.908 457.395 583.507 462.013 583.507C468.092 583.507 471.048 579.239 471.048 570.469C471.048 561.805 466.253 558.719 461.761 558.719C458.143 558.719 455.03 560.341 452.999 562.996ZM324.125 550.081H336.419V588.261C336.419 602.208 328.511 609.096 312.241 609.314L311.998 609.318L307.637 601.15L308.198 601.137C324.11 600.902 324.125 594.59 324.125 589.981V588.999C320.957 591.697 317.147 593.067 312.812 593.067C300.72 593.067 293.499 584.697 293.499 570.695C293.499 557.422 301.003 549.177 313.069 549.177C317.253 549.177 321.159 550.542 324.125 553.039V550.081ZM315.298 558.698C311.088 558.698 306.076 560.738 306.076 570.447C306.076 581.224 311.144 583.49 315.394 583.49C319.805 583.49 322.165 581.497 324.125 579.337V562.804C322.685 561.024 319.921 558.698 315.298 558.698ZM369.861 553.261C375.636 550.487 381.675 549.194 388.486 549.194C401.088 549.194 408.612 554.657 408.612 563.811V592.187H396.308V588.739C392.938 591.936 387.834 593.084 384.327 593.084C375.798 593.084 365.843 589.196 365.843 578.219C365.843 568.036 376.551 564.425 385.717 564.425C389.381 564.425 393.458 565.198 396.308 566.419V563.563C396.308 559.603 393.221 557.516 387.41 557.516C382.261 557.516 378.582 558.566 374.666 560.422L369.861 553.261ZM386.647 584.514C391.169 584.514 394.742 582.286 396.308 580.08V574.318C393.453 572.842 390.295 572.244 386.647 572.244C381.336 572.244 378.163 574.476 378.163 578.219C378.163 582.107 381.412 584.514 386.647 584.514ZM530.917 586.477C526.243 590.916 519.896 593.084 513.327 593.084C498.986 593.084 489.724 584.488 489.724 571.177C489.724 558.442 499.118 549.194 512.059 549.194C524.757 549.194 532.953 557.823 532.953 571.177C532.953 572.231 532.887 573.46 532.812 574.331H502.266C502.867 582.841 510.866 583.507 513.327 583.507C517.86 583.507 520.927 581.672 523.15 579.96L530.917 586.477ZM521.094 566.722C520.806 562.45 518.203 558.011 511.7 558.011C506.505 558.011 502.736 561.575 502.438 566.722H521.094ZM649.709 586.477C644.919 590.916 638.688 593.084 632.124 593.084C617.779 593.084 608.506 584.488 608.506 571.177C608.506 558.442 617.9 549.194 630.851 549.194C643.539 549.194 651.751 557.823 651.751 571.177C651.751 572.231 651.675 573.46 651.604 574.331H621.053C621.654 582.841 629.648 583.507 632.124 583.507C636.652 583.507 639.714 581.672 641.937 579.96L649.709 586.477ZM639.876 566.722C639.598 562.45 636.98 558.011 630.482 558.011C625.303 558.011 621.533 561.575 621.225 566.722H639.876ZM591.528 559.838H602.736V550.094H591.533V534.099L579.224 539.292V550.094H571.564V559.838H579.224V580.178C579.224 586.131 582.706 593.084 592.508 593.084C596.404 593.084 599.987 592.405 602.857 591.142L604.307 581.33C602.038 582.359 599.441 583.238 596.859 583.238C593.206 583.238 591.528 581.317 591.528 577.57V559.838ZM569.113 581.33C566.849 582.359 564.247 583.238 561.66 583.238C558.006 583.238 556.339 581.317 556.339 577.57V559.838H566.844V550.094H556.339V534.099L544.029 539.292V550.094H536.334V559.838H544.029V580.178C544.029 586.131 547.506 593.084 557.319 593.084C561.22 593.084 564.797 592.405 567.663 591.142L569.113 581.33ZM692.271 551.733C689.911 550.184 686.273 549.194 682.988 549.194C678.633 549.194 674.934 550.581 671.978 553.743V550.094H659.669V592.187H671.978V569.376C671.978 562.701 674.808 559.59 680.871 559.59C683.772 559.59 686.551 560.452 689.027 561.873L692.271 551.733ZM120.811 544.072H133.11V533.689H120.811V544.072ZM218.84 592.187H231.149V550.094H218.84V592.187ZM218.835 544.072H231.129V533.689H218.835V544.072ZM569.285 611.316L581.579 606.118V665.713H569.285V662.504C565.98 665.308 562.109 666.609 557.971 666.609C545.899 666.609 538.688 658.249 538.688 644.242C538.688 630.969 546.177 622.719 558.223 622.719C562.412 622.719 566.283 623.957 569.285 626.59V611.316ZM569.285 652.884V636.351C567.845 634.571 565.08 632.249 560.462 632.249C556.248 632.249 551.235 634.281 551.235 643.998C551.235 654.77 556.334 657.032 560.619 657.032C565.192 657.032 567.455 654.894 569.285 652.884ZM154.338 625.267C151.978 623.714 148.335 622.724 145.05 622.724C140.694 622.724 137.001 624.111 134.044 627.273V623.624H121.735V665.717H134.044V642.91C134.044 636.231 136.869 633.116 142.938 633.116C145.848 633.116 148.618 633.986 151.094 635.407L154.338 625.267ZM49.7191 639.108C48.668 643.077 47.6473 647.003 47.0763 649.704C46.3386 646.448 44.9995 641.886 44.1152 639.112L38.9207 623.615H28.4457L23.2511 639.116C22.3365 642.001 20.9874 646.534 20.2951 649.658C19.6786 646.495 18.4912 641.801 17.7938 639.342L13.2158 623.615H0.527542L14.5245 665.487L14.6003 665.709H25.2471L30.7145 648.578C31.6241 645.983 33.0136 640.789 33.4836 639.082C34.1506 641.468 35.2673 645.159 36.192 648.236L41.7302 665.709H52.3062L66.384 623.615H54.2163L49.7191 639.108ZM114.146 644.656C114.146 657.395 104.615 666.643 91.4927 666.643C78.3699 666.643 68.8449 657.395 68.8449 644.656C68.8449 631.916 78.3699 622.668 91.4927 622.668C104.615 622.668 114.146 631.916 114.146 644.656ZM101.589 644.656C101.589 637.26 97.6271 632.488 91.4927 632.488C85.3583 632.488 81.3916 637.26 81.3916 644.656C81.3916 652.048 85.3583 656.827 91.4927 656.827C97.6271 656.827 101.589 652.048 101.589 644.656ZM511.912 625.267C509.552 623.714 505.914 622.724 502.63 622.724C498.274 622.724 494.58 624.111 491.624 627.273V623.624H479.31V665.717H491.624V642.91C491.624 636.231 494.449 633.116 500.512 633.116C503.418 633.116 506.192 633.986 508.668 635.407L511.912 625.267ZM407.299 639.108C406.248 643.077 405.227 647.003 404.656 649.704C403.913 646.448 402.579 641.886 401.7 639.112L396.5 623.615H386.025L380.831 639.116C379.911 642.001 378.567 646.534 377.875 649.658C377.253 646.495 376.071 641.801 375.373 639.342L370.795 623.615H358.107L372.104 665.487L372.185 665.709H382.827L388.294 648.578C389.199 645.983 390.588 640.789 391.058 639.082C391.73 641.468 392.842 645.159 393.777 648.236L399.31 665.709H409.891L423.964 623.615H411.791L407.299 639.108ZM471.629 644.677C471.629 657.416 462.099 666.66 448.971 666.66C435.854 666.66 426.323 657.416 426.323 644.677C426.323 631.938 435.854 622.689 448.971 622.689C462.099 622.689 471.629 631.938 471.629 644.677ZM459.072 644.677C459.072 637.281 455.106 632.51 448.971 632.51C442.837 632.51 438.88 637.281 438.88 644.677C438.88 652.069 442.837 656.845 448.971 656.845C455.106 656.845 459.072 652.069 459.072 644.677ZM201.053 623.615H186.824L177.001 634.413C175.687 635.838 173.868 637.836 172.337 639.692V606.173L160.083 611.371V665.709H172.337V653.097L178.845 646.171L189.325 665.709H202.933L187.758 637.482L201.053 623.615ZM246.212 642.454C246.212 635.774 249.482 632.245 255.667 632.245C261.791 632.245 264.641 635.506 264.641 642.526V665.717H276.95V641.92C276.95 629.356 270.639 622.715 258.698 622.715C253.625 622.715 249.234 624.294 246.212 627.175V623.624H233.898V665.717H246.212V642.454ZM315.828 623.611H328.127V661.791C328.127 675.742 320.214 682.626 303.943 682.844L303.706 682.848L299.345 674.684L299.901 674.671C315.818 674.432 315.828 668.12 315.828 663.515V662.533C312.66 665.235 308.85 666.592 304.519 666.592C292.428 666.592 285.207 658.232 285.207 644.225C285.207 630.952 292.705 622.706 304.772 622.706C308.961 622.706 312.857 624.072 315.828 626.573V623.611ZM307.006 632.236C302.796 632.236 297.779 634.264 297.779 643.981C297.779 654.753 302.847 657.019 307.102 657.019C311.508 657.019 313.873 655.026 315.828 652.867V636.333C314.388 634.554 311.624 632.236 307.006 632.236ZM210.543 665.717H222.852V623.624H210.543V665.717ZM210.543 617.598H222.837V607.219H210.543V617.598ZM517.748 665.709H530.058V606.173L517.748 611.371V665.709Z" fill="white"/>
<path fill-rule="evenodd" clip-rule="evenodd" d="M554.179 0L0 170.831L554.179 88.1469V0Z" fill="#FFE600"/>
</svg>
