<svg width="1200" height="187" viewBox="0 0 1200 187" fill="none" xmlns="http://www.w3.org/2000/svg">
<g style="mix-blend-mode:hard-light">
<path fill-rule="evenodd" clip-rule="evenodd" d="M0 89.1434L50 94.5799C100 100.016 200 110.889 300 89.1434C400 67.3975 500 13.0327 600 2.15971C700 -8.71325 800 23.9056 900 45.6515C1000 67.3975 1100 78.2704 1150 83.7069L1200 89.1434V187H1150C1100 187 1000 187 900 187C800 187 700 187 600 187C500 187 400 187 300 187C200 187 100 187 50 187H0V89.1434Z" fill="#6EACDA"/>
<path fill-rule="evenodd" clip-rule="evenodd" d="M0 89.1434L50 94.5799C100 100.016 200 110.889 300 89.1434C400 67.3975 500 13.0327 600 2.15971C700 -8.71325 800 23.9056 900 45.6515C1000 67.3975 1100 78.2704 1150 83.7069L1200 89.1434V187H1150C1100 187 1000 187 900 187C800 187 700 187 600 187C500 187 400 187 300 187C200 187 100 187 50 187H0V89.1434Z" stroke="#6EACDA"/>
</g>
<path fill-rule="evenodd" clip-rule="evenodd" d="M0 186.5L40 150.5C80 114.5 160 42.5 240 36.5C320 30.5 400 90.5 480 114.5C560 138.5 640 126.5 720 90.5C800 54.5 880 -5.50001 960 0.499994C1040 6.49999 1120 78.5 1160 114.5L1200 150.5V186.5H1160C1120 186.5 1040 186.5 960 186.5C880 186.5 800 186.5 720 186.5C640 186.5 560 186.5 480 186.5C400 186.5 320 186.5 240 186.5C160 186.5 80 186.5 40 186.5H0Z" fill="#03346E"/>
</svg>
